<?xml version="1.0" standalone="no"?>
<!DOCTYPE svg PUBLIC "-//W3C//DTD SVG 20010904//EN"
 "http://www.w3.org/TR/2001/REC-SVG-20010904/DTD/svg10.dtd">
<svg version="1.0" xmlns="http://www.w3.org/2000/svg"
 width="320.000000pt" height="320.000000pt" viewBox="0 0 320.000000 320.000000"
 preserveAspectRatio="xMidYMid meet">
<metadata>
Created by potrace 1.14, written by Peter Selinger 2001-2017
</metadata>
<g transform="translate(0.000000,320.000000) scale(0.100000,-0.100000)"
fill="#000000" stroke="none">
<path d="M17 3170 c-10 -16 -16 -30 -14 -30 2 0 13 14 25 30 13 17 19 30 14
30 -4 0 -16 -13 -25 -30z"/>
<path d="M84 3178 c-35 -41 -84 -107 -84 -113 0 -4 19 13 43 37 23 24 59 51
79 61 51 24 56 37 15 37 -22 0 -40 -7 -53 -22z"/>
<path d="M236 3179 c-11 -10 -15 -19 -9 -19 5 0 18 9 28 20 23 26 6 25 -19 -1z"/>
<path d="M293 3176 c-10 -13 -35 -29 -56 -37 -20 -7 -52 -28 -69 -47 l-33 -35
48 37 c46 34 77 46 77 28 0 -4 -5 -13 -12 -20 -6 -6 -9 -14 -6 -17 3 -3 15 10
27 29 12 19 36 47 52 61 27 22 28 25 10 25 -11 0 -28 -11 -38 -24z"/>
<path d="M688 3184 c12 -8 19 -21 16 -27 -5 -9 -3 -9 6 0 11 10 11 15 0 28 -7
8 -20 15 -28 15 -12 0 -11 -4 6 -16z"/>
<path d="M874 3185 c3 -8 9 -23 13 -32 5 -12 2 -15 -10 -10 -11 4 -17 1 -17
-7 0 -27 -44 -68 -99 -93 -55 -25 -58 -25 -226 -17 -93 4 -252 8 -352 8 l-183
1 0 -99 c0 -88 2 -97 17 -92 16 6 16 6 0 -12 -9 -10 -17 -33 -17 -52 l0 -33
44 41 c47 43 78 56 117 50 23 -4 23 -5 4 -12 -11 -4 -32 -14 -47 -22 -14 -8
-33 -14 -41 -14 -9 0 -29 -12 -46 -26 -30 -25 -31 -28 -31 -110 l0 -83 29 5
c26 6 29 4 27 -17 -2 -13 -15 -47 -29 -76 -29 -56 -34 -74 -16 -56 6 6 17 9
24 7 7 -3 16 -1 19 4 3 6 14 8 24 6 9 -3 28 0 42 5 21 9 19 10 -14 4 -44 -7
-44 -5 8 61 17 21 42 43 56 48 14 6 98 12 186 13 l162 2 6 -45 c9 -67 8 -82
-7 -76 -7 2 -53 -2 -101 -11 -49 -8 -103 -15 -120 -14 -30 1 -30 1 -6 9 14 4
43 9 65 9 22 1 60 8 85 15 53 17 41 20 -27 7 -26 -6 -79 -15 -118 -21 -133
-22 -127 -19 -121 -48 3 -15 8 -47 12 -71 l6 -44 61 7 c45 4 58 3 50 -5 -6 -6
-27 -11 -47 -12 -27 -1 -48 -11 -78 -36 -22 -19 -73 -52 -112 -73 -75 -40 -83
-48 -20 -22 35 15 37 15 25 0 -7 -9 -19 -16 -27 -16 -7 0 -15 -4 -18 -9 -9
-14 61 5 92 25 15 9 50 37 78 61 32 27 57 41 67 37 10 -3 24 4 38 20 18 20 32
26 65 26 26 0 46 6 51 14 4 7 21 15 36 18 32 6 66 -22 69 -56 8 -119 12 -110
-52 -120 -47 -7 -90 25 -69 52 13 15 12 16 -3 3 -15 -11 -18 -11 -18 1 0 10
23 21 67 33 37 10 62 20 56 22 -7 3 -42 -5 -79 -16 -37 -11 -72 -17 -78 -14
-6 4 -1 -5 11 -20 12 -16 25 -41 28 -57 6 -29 8 -30 70 -30 70 0 75 -5 75 -82
0 -44 17 -40 -180 -43 -78 -1 -134 -6 -148 -14 -39 -21 -18 -23 43 -6 31 9 59
14 62 11 4 -3 0 -6 -8 -6 -12 0 -12 -2 0 -9 9 -6 -4 -11 -40 -16 -59 -8 -104
-27 -112 -47 -2 -8 -1 -38 4 -68 5 -30 6 -86 2 -125 -6 -60 -8 -65 -13 -35 -3
19 -1 41 4 49 9 12 5 13 -23 8 -18 -4 -40 -7 -47 -7 -8 0 -14 -11 -14 -26 0
-19 -7 -28 -30 -37 -17 -6 -30 -15 -30 -20 0 -5 8 -6 17 -3 16 6 16 6 0 -11
-13 -16 -16 -46 -16 -196 -1 -97 2 -177 5 -177 3 0 20 11 38 25 33 25 174 80
183 71 6 -5 -31 -26 -66 -37 l-26 -7 28 -1 c20 -1 27 -6 27 -20 0 -22 -11 -27
-90 -37 -102 -12 -97 -6 -98 -142 l-1 -120 44 29 c45 30 61 62 84 167 7 34 6
42 -5 42 -8 0 -14 -7 -14 -15 0 -16 -90 -158 -96 -152 -2 2 15 42 38 89 39 80
44 87 76 90 38 5 38 11 4 -107 -21 -72 -22 -85 -5 -63 9 12 21 44 73 193 18
53 42 72 110 86 l35 7 -40 2 c-35 2 -37 3 -15 10 14 4 39 8 55 9 24 1 27 -1
15 -10 -11 -8 -9 -9 10 -3 14 4 45 7 70 7 31 0 39 2 25 7 -17 7 -15 9 15 19
32 10 29 11 -30 7 l-65 -5 47 22 c53 24 76 54 34 43 -22 -5 -25 -2 -32 37 -4
23 -7 45 -6 50 4 15 -16 7 -22 -9 -4 -9 -9 -14 -12 -11 -3 3 1 16 10 29 8 12
26 49 40 81 22 49 23 55 8 46 -10 -7 -31 -31 -46 -54 -14 -24 -34 -49 -43 -57
-27 -21 15 46 60 97 20 24 37 46 37 50 0 15 -31 35 -55 35 -24 0 -25 2 -14 23
7 12 23 32 36 45 l24 22 -23 0 c-13 0 -29 -5 -36 -12 -17 -17 -16 5 1 33 10
18 9 23 -15 44 -21 18 -24 26 -15 33 19 16 134 45 151 39 13 -5 15 -44 16
-297 l0 -291 -22 -9 c-20 -9 -19 -10 7 -5 17 3 70 10 119 15 49 5 97 12 106
15 11 3 20 -1 23 -10 6 -13 12 -13 53 3 40 15 48 23 64 63 9 25 43 81 74 123
55 75 57 79 45 108 -7 17 -13 54 -14 82 -1 28 -7 61 -13 72 -18 34 -41 155
-28 151 6 -2 13 -12 15 -23 2 -10 9 -23 17 -27 8 -4 14 -15 14 -22 0 -8 4 -15
9 -15 5 0 21 -25 36 -55 16 -30 32 -55 36 -55 5 0 14 -10 20 -22 l12 -23 -23
20 -23 20 12 -22 c16 -31 14 -50 -9 -73 -11 -11 -16 -20 -11 -20 5 0 21 14 35
32 14 18 28 29 32 26 3 -4 -18 -33 -48 -65 -65 -70 -98 -115 -125 -168 -34
-68 -36 -93 -2 -37 17 29 33 51 35 49 2 -2 -8 -34 -22 -73 -67 -180 -73 -207
-45 -189 6 3 11 24 11 45 0 21 3 41 8 43 4 3 8 -86 9 -196 3 -189 0 -209 -21
-143 -4 10 -9 17 -12 14 -4 -5 40 -175 70 -268 l15 -45 -1 40 c-1 22 -5 45
-10 52 -5 6 -5 14 1 17 5 3 17 -15 26 -41 10 -27 21 -57 25 -68 5 -11 16 -51
25 -88 16 -65 16 -69 -2 -83 -16 -13 -16 -13 0 -8 9 3 17 4 17 1 0 -8 50 -247
71 -336 23 -100 35 -135 61 -174 l19 -27 174 0 173 0 40 67 c22 38 65 119 97
182 31 63 68 132 81 153 29 46 141 131 162 123 8 -3 23 2 34 11 23 21 36 11
14 -11 -24 -24 -20 -31 5 -9 12 10 36 42 54 70 19 29 38 55 43 58 13 8 -14
-48 -41 -87 l-20 -29 29 -26 c15 -15 22 -19 14 -9 -12 16 -11 23 5 53 10 19
22 34 27 34 8 0 55 -39 110 -92 29 -28 36 -52 17 -64 -8 -4 -7 -9 2 -15 30
-18 -209 -221 -341 -289 -30 -15 -91 -48 -135 -74 l-79 -46 331 1 331 1 11 37
10 36 -5 -37 c-7 -52 11 -48 24 5 l11 42 -3 -42 c-4 -39 -2 -43 18 -43 24 0
50 35 40 52 -4 7 -3 8 4 4 8 -4 16 4 23 21 6 15 17 35 25 45 9 9 26 42 38 73
20 48 24 53 29 33 4 -13 2 -25 -3 -26 -6 -2 -10 -8 -10 -14 0 -5 -10 -24 -22
-41 -12 -17 -35 -57 -50 -89 l-27 -58 24 0 c19 0 29 10 45 42 14 30 19 35 15
16 -3 -14 -8 -33 -11 -42 -3 -9 -2 -16 3 -16 6 0 15 15 21 33 l11 32 -5 -32
-6 -33 79 0 78 0 23 44 c13 24 37 59 54 77 l30 34 -20 -35 c-11 -19 -29 -51
-41 -70 -26 -44 -26 -48 3 -47 15 0 27 8 34 26 l12 26 -4 -28 -3 -27 66 0 c65
0 67 1 84 33 26 47 90 115 113 119 17 3 20 -6 29 -72 l10 -75 48 -3 c37 -2 47
0 47 12 0 19 -21 21 -38 4 -6 -6 -15 -9 -19 -5 -4 4 8 13 25 19 29 11 32 16
32 57 l0 45 -31 -34 c-30 -34 -30 -34 -13 -5 9 17 23 39 31 50 7 11 13 33 13
49 l0 30 -41 -39 -42 -40 42 57 c23 33 41 68 41 84 l0 26 -20 -23 -21 -24 21
42 c13 28 20 62 20 103 0 57 -1 60 -19 50 -16 -8 -23 -6 -35 12 -17 23 -12 38
30 95 13 17 24 39 24 47 0 20 -24 21 -40 2 -13 -17 -80 -58 -80 -50 0 3 9 21
19 42 22 43 46 67 79 76 21 7 22 13 22 102 0 74 -3 93 -12 88 -95 -58 -108
-76 -119 -164 -4 -37 -15 -83 -24 -102 -14 -31 -15 -32 -10 -5 4 21 2 28 -7
25 -7 -3 -14 -14 -16 -25 -2 -16 -14 -23 -50 -30 -26 -6 -56 -14 -67 -18 -15
-6 -17 -5 -9 4 6 7 33 18 60 26 27 7 42 14 34 15 -11 1 -9 4 5 10 l20 9 -20 0
c-11 1 -39 -9 -62 -21 -36 -19 -46 -21 -63 -10 -18 11 -22 10 -30 -10 -8 -22
-9 -21 -10 7 -2 63 -9 117 -15 123 -3 3 -5 -12 -3 -33 4 -80 -1 -115 -17 -109
-10 4 -15 0 -15 -14 0 -11 -3 -35 -6 -53 l-6 -34 20 31 c30 47 41 49 56 12 21
-53 27 -118 10 -125 -8 -3 -11 -9 -8 -14 3 -5 1 -9 -5 -9 -5 0 -15 25 -21 55
-6 30 -15 57 -20 60 -5 3 -5 -9 1 -27 5 -18 9 -71 8 -118 -1 -94 -7 -98 -11
-6 -2 40 -8 61 -17 64 -10 3 -13 -3 -9 -27 2 -17 1 -31 -4 -31 -4 0 -8 12 -8
26 0 14 -4 33 -10 43 -6 12 -4 46 7 102 22 117 22 117 33 99 12 -19 12 83 0
120 -8 24 -8 23 -9 -8 -1 -19 -5 -31 -11 -27 -5 3 -10 2 -10 -4 0 -5 5 -13 11
-17 8 -5 8 -8 0 -13 -6 -4 -15 -31 -20 -61 -9 -53 -10 -52 -8 33 2 84 1 87
-20 87 -14 0 -21 -5 -18 -13 3 -6 1 -25 -4 -42 -8 -27 -9 -25 -11 25 l-2 55
-9 -40 c-4 -22 -20 -105 -35 -185 -15 -80 -35 -167 -46 -195 -17 -48 -17 -30
1 45 44 178 71 353 61 388 -5 15 -9 21 -9 14 -2 -21 -21 -3 -22 21 -1 12 -7
-14 -14 -58 l-12 -80 -2 65 c-2 46 -5 59 -11 45 -6 -15 -9 -8 -10 30 -1 28 -6
59 -11 70 -9 19 -9 18 -5 -2 2 -13 0 -26 -5 -29 -5 -3 -9 0 -9 5 0 6 -4 11
-10 11 -5 0 -10 -21 -10 -46 0 -26 -7 -85 -16 -133 -20 -105 -23 -115 -29
-109 -3 3 2 40 10 84 14 74 21 173 11 163 -3 -3 -7 -27 -10 -54 -3 -28 -8 -63
-11 -80 -3 -16 -11 -57 -17 -90 -6 -33 -15 -67 -20 -75 -8 -14 -5 18 9 78 4
18 1 22 -21 22 -19 0 -26 -5 -26 -20 0 -22 -25 -28 -33 -7 -4 9 -6 8 -6 -2 -1
-11 -4 -11 -16 -1 -10 9 -15 9 -15 1 0 -6 -7 -11 -15 -11 -18 0 -20 31 -3 48
6 6 13 32 14 57 1 25 7 51 13 59 6 7 9 20 6 28 -4 9 1 18 10 22 16 6 35 -27
35 -64 0 -23 16 -35 26 -18 4 6 2 14 -4 16 -11 3 -5 32 8 32 4 0 12 -10 18
-23 11 -21 12 -21 9 8 -2 24 -7 30 -23 29 -15 0 -20 4 -17 13 4 10 15 12 35 7
46 -9 32 13 -38 62 -57 40 -59 44 -72 105 -7 35 -23 93 -34 129 -67 208 -90
257 -149 325 l-30 34 41 85 41 85 50 10 c60 13 99 14 99 3 0 -5 28 -4 61 1 45
8 67 7 81 -2 10 -6 23 -9 29 -6 5 4 74 6 152 5 78 -1 208 -2 289 -3 l148 -2 0
27 c0 34 17 78 29 78 6 0 13 -23 17 -50 5 -40 10 -50 25 -50 17 0 19 8 17 70
l-2 70 -31 0 c-16 0 -37 5 -45 10 -11 7 -2 10 33 10 33 0 47 4 47 14 0 9 -12
14 -36 14 -45 0 -52 7 -69 73 -20 74 -20 73 26 103 45 30 49 29 66 -17 10 -29
12 -22 12 63 l1 95 -45 -3 c-49 -4 -45 -11 -65 102 -14 82 -14 82 24 105 38
24 72 27 79 9 3 -7 6 -1 6 14 1 14 -4 28 -11 30 -9 3 -14 84 -18 301 -6 261
-8 300 -23 314 -14 15 -22 16 -48 6 -37 -14 -49 -10 -119 40 l-55 39 40 -39
c48 -47 114 -93 134 -93 11 0 10 4 -5 15 -16 13 -17 16 -4 25 8 5 24 10 35 10
15 0 17 -2 6 -9 -8 -5 -9 -10 -3 -12 11 -4 24 -183 36 -481 5 -119 4 -128 -13
-128 -10 0 -26 9 -36 20 -10 11 -27 20 -37 20 -20 0 -31 -22 -56 -117 -9 -35
-20 -63 -24 -63 -11 0 1 54 28 130 15 41 18 58 8 45 -8 -11 -22 -45 -30 -75
-22 -79 -22 -80 -34 -80 -6 0 -10 59 -10 168 0 93 -3 263 -7 379 l-6 210 -206
0 -206 -1 67 -34 c38 -18 68 -38 68 -43 0 -13 -18 -11 -43 6 -48 31 -171 75
-211 75 -51 0 -122 -21 -197 -59 -33 -16 -61 -25 -64 -21 -7 12 73 59 122 72
40 10 91 54 175 151 l50 57 -30 0 c-27 0 -38 -10 -85 -77 -98 -138 -71 -127
-281 -121 -99 3 -190 2 -201 -3 -14 -5 -5 -8 31 -8 38 -1 59 -7 85 -27 19 -14
55 -36 81 -50 26 -13 52 -33 58 -44 12 -23 30 -27 30 -6 0 21 39 46 71 46 18
0 36 -10 53 -31 32 -38 32 -47 1 -89 l-25 -34 0 36 c0 19 -3 50 -6 67 -6 27
-11 32 -32 29 -19 -2 -28 -11 -33 -32 -7 -25 -2 -33 43 -77 49 -47 54 -49 97
-45 25 2 54 7 63 11 21 9 44 -26 52 -82 3 -23 9 -48 12 -57 5 -12 0 -16 -17
-16 -21 0 -22 -1 -7 -16 12 -12 20 -14 36 -5 31 17 50 13 76 -13 l24 -23 13
26 c7 14 14 36 16 48 4 22 3 22 -22 -3 -21 -21 -31 -24 -58 -19 -38 8 -41 11
-55 51 -8 26 -7 37 9 63 39 64 113 65 125 2 6 -26 10 -29 34 -25 27 6 27 5 33
-57 11 -105 12 -103 -23 -78 -16 13 -33 19 -37 14 -5 -4 -3 -9 2 -11 6 -2 25
-13 43 -24 24 -15 32 -27 32 -48 0 -16 -3 -32 -7 -36 -8 -7 -5 -90 3 -119 6
-20 16 -6 70 102 33 67 37 169 9 284 -13 54 -15 81 -8 88 8 8 18 -7 34 -48 18
-46 23 -78 23 -158 1 -93 -1 -105 -31 -165 -17 -36 -41 -81 -53 -100 -20 -31
-20 -33 -2 -12 23 25 32 28 32 8 0 -23 29 -27 41 -5 9 18 12 19 22 6 7 -8 24
-17 39 -19 l26 -5 1 120 c1 66 3 123 6 125 3 3 5 -42 6 -99 0 -57 4 -146 7
-197 7 -96 3 -120 -17 -107 -8 4 -10 27 -6 68 3 34 2 55 -1 47 -4 -8 -14 -23
-22 -33 -16 -18 -17 -18 -23 0 -4 10 -5 -14 -3 -54 2 -58 0 -73 -13 -77 -23
-9 -26 -3 -31 59 l-4 55 -43 0 c-39 0 -43 3 -53 33 l-11 32 5 -33 c3 -18 6
-57 6 -87 0 -30 4 -55 7 -55 18 0 31 28 31 63 0 34 2 38 23 35 19 -3 22 -10
25 -49 2 -51 -7 -59 -71 -59 -16 0 -26 -3 -24 -8 3 -4 40 -5 84 -2 43 3 94 3
113 -1 l35 -7 -35 -1 c-53 -2 -140 -24 -140 -36 0 -6 4 -15 9 -20 5 -6 15 -34
24 -62 14 -50 14 -53 -4 -53 -10 0 -21 -4 -24 -10 -9 -15 -72 -12 -78 4 -8 21
-58 28 -108 15 -24 -6 -62 -13 -84 -14 -22 -1 -48 -3 -57 -4 -9 0 -19 -9 -22
-18 -5 -15 -60 -54 -98 -71 -16 -7 8 37 39 73 38 44 35 37 37 93 1 23 -1 39
-5 35 -9 -10 -89 -169 -89 -177 0 -4 -16 -39 -36 -79 -59 -119 -32 -27 41 138
37 83 73 163 81 179 7 15 17 51 20 78 6 43 12 53 43 72 58 37 75 61 65 93 -4
15 -8 40 -9 56 -2 33 -11 43 -50 53 -27 7 -29 6 -16 -9 8 -11 9 -17 2 -17 -6
0 -13 11 -17 25 -5 22 -37 60 -33 39 4 -21 -2 -35 -12 -28 -6 3 -9 15 -6 25 6
22 -11 26 -19 5 -4 -11 -12 -13 -29 -6 -39 15 -135 82 -130 90 3 5 -3 6 -12 4
-10 -2 -24 0 -32 5 -13 8 -13 12 -1 28 14 17 14 17 -7 0 -20 -18 -23 -17 -114
31 -52 27 -102 49 -111 49 -23 0 -171 69 -223 103 -22 15 -51 33 -65 40 -23
12 -24 12 -11 -3 7 -10 17 -17 22 -17 4 0 34 -18 65 -40 32 -22 61 -40 66 -40
5 0 19 -9 31 -21 l22 -21 -35 7 c-133 29 -166 31 -236 13 -38 -9 -83 -17 -100
-17 -36 -1 -85 -17 -168 -55 -31 -14 -63 -26 -70 -26 -8 0 -33 23 -56 50 -23
28 -47 50 -53 50 -6 0 -2 -7 10 -15 29 -20 33 -48 12 -76 -13 -17 -19 -20 -19
-8 0 8 6 21 12 27 10 10 8 12 -9 9 -34 -5 -37 -13 -19 -49 17 -33 17 -33 -11
-56 -21 -18 -37 -22 -64 -19 -52 7 -64 -4 -46 -39 8 -16 18 -45 22 -64 4 -19
23 -51 41 -70 39 -40 42 -53 13 -73 -19 -14 -19 -16 -3 -25 11 -6 15 -16 11
-28 -7 -18 -6 -18 7 -1 16 20 36 22 36 3 0 -13 -28 -28 -60 -30 -9 -1 -15 -11
-14 -24 0 -13 -5 -22 -14 -22 -12 0 -12 -3 2 -19 10 -11 15 -24 12 -29 -3 -5
5 -15 18 -22 13 -6 34 -31 47 -54 12 -22 29 -47 36 -54 7 -7 13 -20 13 -28 0
-8 9 -14 20 -14 11 0 20 -5 20 -12 0 -6 3 -9 6 -6 3 4 0 16 -6 28 -29 53 7
407 51 504 17 36 68 66 112 66 30 0 39 -5 52 -30 8 -16 15 -37 15 -46 0 -15
-2 -16 -17 -2 -18 15 -53 31 -53 24 0 -2 22 -18 49 -36 l50 -31 53 30 c60 35
58 42 -3 11 -53 -28 -69 -16 -31 24 16 17 33 40 36 51 8 26 65 65 95 65 22 0
20 -3 -14 -30 -48 -38 -39 -38 28 0 106 60 117 29 15 -40 -37 -24 -65 -46 -63
-48 2 -3 16 5 31 17 15 11 36 21 48 20 18 0 16 -3 -9 -14 -21 -10 -24 -14 -12
-15 18 0 170 -101 182 -121 4 -5 13 -6 23 0 9 4 45 11 80 15 35 3 72 10 82 16
16 8 28 4 61 -20 44 -31 72 -31 43 1 -9 10 -12 19 -6 19 6 0 25 -18 42 -40 34
-43 51 -48 90 -25 19 11 21 14 8 15 -10 0 -18 5 -18 11 0 5 -4 7 -10 4 -5 -3
-7 0 -4 9 3 8 12 12 20 9 19 -7 18 6 -3 30 -18 19 -18 20 12 4 61 -33 67 -42
75 -119 5 -43 5 -115 -1 -173 -30 -299 -87 -442 -293 -728 -43 -59 -79 -107
-82 -107 -8 0 17 42 100 165 123 182 139 212 133 251 -4 22 -1 37 9 45 20 17
17 31 -14 55 -30 24 -99 64 -109 64 -3 0 12 -13 33 -29 21 -15 49 -39 61 -53
l23 -24 -56 -107 c-46 -86 -72 -123 -143 -194 -47 -49 -111 -115 -141 -148
-31 -33 -67 -67 -80 -76 l-25 -16 35 4 c34 3 34 3 -16 -23 l-52 -27 -41 20
c-26 13 -37 15 -30 7 9 -11 8 -14 -4 -14 -9 0 -18 4 -21 9 -3 5 -20 14 -36 20
-17 5 -29 7 -26 3 2 -4 -7 -13 -21 -19 -21 -10 -23 -10 -12 3 16 19 6 27 -32
27 -29 0 -30 2 -13 14 17 12 17 13 -3 13 -16 0 -24 11 -37 49 -9 28 -16 62
-16 76 0 21 -8 30 -41 44 -44 20 -69 61 -83 133 -4 20 -22 55 -40 77 -19 22
-37 56 -40 77 -4 20 -9 34 -12 32 -7 -8 23 -139 45 -199 12 -30 36 -72 56 -94
19 -22 43 -56 53 -77 9 -20 30 -44 45 -53 16 -9 26 -19 24 -21 -6 -7 -87 27
-87 36 0 4 -20 15 -45 24 -53 21 -77 55 -111 163 -23 72 -24 86 -19 232 4 86
8 164 11 174 6 20 -16 23 -33 6 -34 -34 -89 65 -151 271 l-19 65 24 68 25 69
-26 37 c-29 42 -32 75 -11 144 41 137 216 303 414 395 110 50 207 83 276 92
68 8 -60 11 -579 11 -170 0 -306 3 -302 6 12 12 149 21 196 13 42 -7 44 -7 23
7 -13 9 -23 25 -23 37 0 40 -21 96 -35 96 -8 0 -15 5 -15 10 0 6 -7 10 -16 10
-10 0 -14 -5 -10 -15z m-168 -333 c5 -75 8 -82 25 -77 14 5 22 -2 34 -31 9
-22 12 -41 7 -46 -5 -5 -5 -31 0 -61 5 -28 8 -69 5 -92 -2 -22 0 -92 5 -155 6
-63 9 -124 8 -135 0 -11 -3 -153 -5 -315 -2 -162 -7 -333 -12 -380 l-8 -85 -7
90 c-10 139 -23 150 -21 17 2 -64 5 -122 7 -129 8 -20 -8 -15 -21 7 -7 11 -15
50 -18 87 -5 77 -14 1477 -9 1423 2 -19 7 -72 10 -118z m412 45 c5 -31 6 -57
2 -57 -7 0 -20 72 -20 108 0 31 9 5 18 -51z m1631 -13 c30 -29 25 -35 -34 -41
-48 -6 -55 -15 -30 -39 10 -11 25 -13 45 -9 36 8 40 -7 8 -29 -79 -55 -146 47
-82 124 30 35 53 34 93 -6z m-356 14 c4 -10 7 -10 18 0 15 14 61 16 75 3 5 -6
25 -5 51 2 54 14 64 5 71 -63 2 -28 9 -53 13 -56 22 -13 5 -24 -38 -24 -38 1
-44 3 -30 11 12 7 17 22 17 52 0 59 -10 71 -44 55 -26 -11 -27 -15 -22 -52 4
-22 12 -46 18 -53 8 -10 1 -13 -38 -13 -37 0 -45 3 -36 12 14 14 16 86 3 107
-8 12 -13 12 -33 -1 -20 -13 -23 -22 -20 -52 2 -20 8 -39 13 -42 22 -13 5 -24
-38 -24 -41 1 -46 2 -31 13 21 16 21 75 0 99 -13 16 -13 19 9 27 33 13 37 13
42 -1z m-2102 -94 c-48 -15 -187 -27 -176 -16 15 16 72 27 143 28 l77 1 -44
-13z m2449 6 c-8 -5 -19 -10 -25 -10 -5 0 -3 5 5 10 8 5 20 10 25 10 6 0 3 -5
-5 -10z m-2306 -9 c8 -12 -34 -19 -75 -13 -33 5 -33 6 -9 13 36 10 78 10 84 0z
m124 -4 c-34 -5 -68 -5 -83 0 -20 6 -6 9 57 9 l83 1 -57 -10z m342 -52 c-7 -8
-17 -15 -23 -15 -5 0 -2 9 8 20 21 23 35 19 15 -5z m-810 2 c0 -2 -12 -14 -26
-28 l-27 -24 18 28 c14 22 35 36 35 24z m165 -7 c-27 -12 -43 -12 -25 0 8 5
22 9 30 9 10 0 8 -3 -5 -9z m1435 -95 c137 -6 206 -22 325 -73 149 -65 383
-210 405 -252 19 -35 -4 -41 -58 -15 -29 14 -52 30 -52 35 0 6 -8 10 -18 10
-20 0 -66 43 -56 52 3 3 0 9 -7 14 -8 5 -10 3 -4 -6 14 -22 -33 7 -152 98 -31
23 -63 42 -70 42 -8 0 -32 9 -55 21 -22 11 -51 19 -64 16 -13 -2 -24 0 -24 5
0 5 -4 7 -9 4 -5 -3 -23 1 -40 10 -34 17 -135 21 -231 10 -30 -4 -66 -8 -80
-9 -14 -1 -27 -5 -30 -9 -3 -4 -21 -9 -40 -12 -19 -2 -57 -16 -84 -32 -35 -20
-50 -24 -56 -15 -5 9 -14 1 -29 -24 -22 -38 -71 -65 -119 -65 -36 0 -59 -24
-71 -76 -8 -37 -9 -37 -10 -8 -1 40 49 116 97 144 66 39 271 115 297 111 3 -1
18 5 34 13 15 8 38 12 49 9 14 -3 22 -1 22 7 0 9 8 10 28 5 15 -4 61 -9 102
-10z m-1173 -31 c-3 -3 -12 -4 -19 -1 -8 3 -5 6 6 6 11 1 17 -2 13 -5z m-32
-24 c-16 -4 -46 -8 -65 -8 -28 -1 -31 1 -15 8 11 5 40 8 65 8 41 0 42 -1 15
-8z m165 -17 c1 -16 3 -250 6 -521 l6 -493 -38 3 -39 3 3 44 c1 24 7 52 13 62
6 12 6 19 0 19 -5 0 -11 -6 -14 -12 -10 -28 -21 95 -21 227 1 77 1 163 0 190
-5 232 0 409 12 413 7 2 10 -2 6 -12 -4 -11 1 -14 23 -12 27 3 28 5 26 60 -1
31 2 56 7 56 6 0 10 -12 10 -27z m524 11 c5 -14 4 -15 -9 -4 -17 14 -19 20 -6
20 5 0 12 -7 15 -16z m436 6 c-8 -5 -24 -9 -35 -9 l-20 0 20 9 c11 5 27 9 35
9 13 1 13 0 0 -9z m-145 -20 c-3 -5 -16 -10 -29 -10 -12 0 -28 -6 -36 -12 -12
-11 -12 -10 -1 4 11 14 24 20 64 27 5 0 5 -3 2 -9z m463 -131 c-13 -4 -34 -7
-48 -7 -22 0 -22 1 4 7 28 6 50 31 27 31 -6 0 -11 5 -11 12 0 6 12 1 26 -13
l26 -24 -24 -6z m-92 -1 c6 -10 -24 -9 -51 2 -16 6 -14 8 13 7 18 0 35 -4 38
-9z m-1299 -40 c1 -40 -9 -57 -31 -58 -5 0 -1 9 9 20 10 11 15 23 12 27 -4 3
-7 1 -7 -5 0 -18 -27 -14 -34 4 -7 18 19 54 38 54 6 0 12 -19 13 -42z m280 10
c-3 -7 -5 -2 -5 12 0 14 2 19 5 13 2 -7 2 -19 0 -25z m-423 -20 c19 -36 20
-41 6 -33 -6 3 -22 -2 -38 -13 -15 -10 -43 -22 -62 -25 -19 -4 -48 -10 -64
-13 l-29 -7 19 33 c20 35 68 70 95 70 9 0 22 7 29 15 15 18 25 13 44 -27z
m2456 -38 c0 -5 -7 -10 -15 -10 -8 0 -15 5 -15 10 0 6 7 10 15 10 8 0 15 -4
15 -10z m-2313 -42 c-3 -7 -5 -2 -5 12 0 14 2 19 5 13 2 -7 2 -19 0 -25z m280
-110 c-3 -8 -6 -5 -6 6 -1 11 2 17 5 13 3 -3 4 -12 1 -19z m2208 -81 c12 -42
12 -49 -1 -54 -21 -8 -22 -5 -24 62 -2 72 1 99 7 65 2 -14 11 -47 18 -73z
m-2208 16 c-3 -10 -5 -2 -5 17 0 19 2 27 5 18 2 -10 2 -26 0 -35z m2117 -22
c3 -5 -1 -14 -9 -21 -8 -7 -15 -10 -15 -7 0 3 -3 12 -6 21 -7 17 20 23 30 7z
m-1974 -17 c0 -2 -7 -4 -15 -4 -8 0 -15 4 -15 10 0 5 7 7 15 4 8 -4 15 -8 15
-10z m-143 -16 c-3 -8 -6 -5 -6 6 -1 11 2 17 5 13 3 -3 4 -12 1 -19z m279 7
c-23 -17 -36 -19 -36 -6 0 5 10 12 23 14 12 2 24 5 27 5 3 1 -4 -5 -14 -13z
m2064 -14 c0 -5 -23 -11 -50 -13 -50 -3 -69 7 -27 15 41 8 77 7 77 -2z m-183
-7 c-3 -3 -12 -4 -19 -1 -8 3 -5 6 6 6 11 1 17 -2 13 -5z m158 -45 c-16 -4
-41 -7 -54 -8 -38 -2 -12 17 29 21 46 5 63 -5 25 -13z m-2028 -11 c-3 -8 -6
-5 -6 6 -1 11 2 17 5 13 3 -3 4 -12 1 -19z m1833 13 c0 -12 -20 -25 -27 -18
-7 7 6 27 18 27 5 0 9 -4 9 -9z m57 3 c-3 -3 -12 -4 -19 -1 -8 3 -5 6 6 6 11
1 17 -2 13 -5z m-2720 -100 c2 -7 -13 -12 -43 -12 -49 -1 -77 -12 -31 -12 17
0 27 -5 27 -15 0 -8 -9 -15 -19 -15 -11 0 -27 -3 -36 -6 -13 -5 -15 -1 -12 22
3 24 11 31 43 41 45 14 66 13 71 -3z m2736 9 c-7 -2 -19 -2 -25 0 -7 3 -2 5
12 5 14 0 19 -2 13 -5z m47 -42 c17 -15 30 -37 30 -48 0 -36 -37 -45 -162 -38
-98 5 -117 3 -128 -10 -19 -23 -134 -85 -158 -85 -16 0 -22 -7 -24 -32 -3 -28
-5 -30 -13 -14 -14 31 6 71 36 71 25 1 119 69 119 86 0 5 26 22 58 39 37 19
47 28 28 23 -20 -4 -27 -3 -22 6 4 6 30 11 57 11 28 0 48 -4 45 -9 -10 -16 28
-23 40 -7 8 12 40 30 62 35 1 1 16 -12 32 -28z m-430 -1 c0 -5 -7 -7 -15 -4
-8 4 -15 8 -15 10 0 2 7 4 15 4 8 0 15 -4 15 -10z m-2304 -25 c12 -12 12 -15
2 -16 -7 0 -30 -1 -50 -3 -21 -2 -38 -2 -38 0 0 5 54 33 63 34 5 0 15 -7 23
-15z m2229 5 c4 -6 15 -8 25 -5 10 3 34 -4 55 -16 37 -22 37 -22 14 -34 -18
-10 -32 -8 -82 12 -34 14 -71 23 -84 20 -33 -6 -17 11 20 22 43 12 45 12 52 1z
m195 -20 c0 -5 -8 -10 -18 -10 -10 0 -24 -6 -31 -12 -10 -11 -11 -10 -6 4 4 9
16 19 28 21 12 2 23 5 25 6 1 0 2 -3 2 -9z m-2420 -20 c0 -5 -5 -10 -11 -10
-5 0 -7 5 -4 10 3 6 8 10 11 10 2 0 4 -4 4 -10z m2120 -21 c-7 -11 -14 -19
-16 -16 -7 7 7 37 17 37 6 0 5 -9 -1 -21z m-2150 -8 c0 -11 -6 -22 -12 -25 -7
-3 -4 -4 7 -3 16 2 21 -7 28 -47 10 -61 5 -142 -8 -137 -5 2 -8 13 -7 24 4 19
3 19 -13 4 -9 -10 -20 -17 -25 -17 -15 0 -40 56 -47 105 -5 43 -3 49 28 81 37
39 49 42 49 15z m2380 -36 c-12 -13 -27 -22 -31 -19 -15 9 -10 19 14 30 37 19
42 15 17 -11z m406 6 c-6 -9 -46 -22 -46 -15 0 3 10 9 23 14 29 11 29 11 23 1z
m-2876 -88 c18 -38 36 -86 41 -108 4 -23 9 -47 11 -54 2 -8 -6 -15 -17 -16
-11 -1 -34 -5 -51 -9 -32 -7 -32 -7 -38 41 -4 26 -2 80 3 118 6 39 11 76 11
83 0 23 8 12 40 -55z m-156 -55 c-10 -16 -22 -7 -17 13 4 15 8 17 14 8 4 -7 5
-17 3 -21z m23 10 c-3 -8 -6 -5 -6 6 -1 11 2 17 5 13 3 -3 4 -12 1 -19z m580
-165 c-2 -16 -4 -3 -4 27 0 30 2 43 4 28 2 -16 2 -40 0 -55z m-347 27 c-19
-13 -30 -13 -30 0 0 6 10 10 23 10 18 0 19 -2 7 -10z m-67 -16 c7 -7 5 -9 -66
-73 -44 -41 -48 -43 -65 -27 -10 9 -21 15 -23 14 -2 -2 2 3 10 10 8 6 21 12
28 12 7 0 13 8 13 18 0 24 86 62 103 46z m104 -47 c7 -23 11 -42 10 -43 -1 -1
-30 -5 -64 -9 -42 -5 -63 -3 -63 4 0 14 41 51 56 51 7 0 15 4 18 9 4 5 -4 7
-16 5 -18 -3 -17 -1 5 8 15 7 27 16 27 22 0 19 15 -7 27 -47z m-240 17 c-3 -3
-12 -4 -19 -1 -8 3 -5 6 6 6 11 1 17 -2 13 -5z m-54 -37 c-11 -12 -25 -31 -31
-42 -6 -11 -12 -14 -12 -7 0 17 51 84 58 77 3 -3 -4 -15 -15 -28z m1996 -128
c-66 -127 -136 -202 -231 -248 -60 -30 -88 -34 -88 -12 0 4 28 21 61 37 72 34
168 132 250 255 29 43 55 77 57 74 2 -2 -20 -50 -49 -106z m-119 29 c-18 -35
-43 -77 -56 -94 -27 -37 -86 -98 -95 -99 -3 0 -18 -13 -32 -30 -15 -16 -27
-25 -27 -18 0 6 34 47 75 90 41 43 94 111 117 150 50 88 63 89 18 1z m-1829
47 c-1 -15 -24 -12 -29 3 -3 9 2 13 12 10 10 -1 17 -7 17 -13z m2043 -192 c7
-85 0 -102 -24 -57 -11 20 -12 29 -2 44 7 11 12 39 12 62 0 65 7 41 14 -49z
m-582 -54 c28 -17 29 -19 8 -14 -14 4 -32 13 -40 21 -21 20 -5 17 32 -7z m719
-137 c13 -100 -2 -213 -32 -255 l-20 -28 20 -28 c32 -45 40 -74 46 -175 5 -82
4 -95 -9 -90 -10 4 -15 18 -13 42 1 23 -3 37 -10 38 -26 3 -28 4 -16 12 8 5 9
18 3 42 l-8 35 -1 -32 c-1 -43 -16 -41 -71 6 l-45 39 23 31 c26 36 31 71 7 51
-10 -8 -15 -9 -15 -1 0 6 11 18 24 27 15 9 22 21 19 30 -3 9 1 14 12 14 13 0
16 -6 12 -21 -5 -18 -3 -17 19 6 29 32 30 41 3 55 -18 10 -29 5 -79 -34 -60
-47 -178 -123 -289 -185 -35 -20 -84 -54 -109 -76 -26 -22 -42 -33 -37 -25 26
45 84 104 167 170 129 105 230 202 224 217 -3 7 -1 15 4 18 6 4 10 -1 10 -10
0 -9 5 -13 10 -10 6 3 10 17 10 31 0 19 -5 24 -25 24 -20 0 -25 5 -25 25 0 28
0 28 33 16 22 -8 24 -7 20 10 -4 12 -14 19 -32 20 -14 0 -20 3 -13 6 6 2 9 9
6 15 -4 6 2 8 16 3 15 -5 25 -2 31 6 5 8 9 -30 9 -95 l0 -109 45 57 45 58 1
102 c0 118 14 104 30 -32z m-196 88 c-10 -11 -15 -20 -10 -20 4 0 -3 -9 -16
-19 -36 -29 -35 -17 2 28 19 22 36 38 38 35 2 -2 -4 -13 -14 -24z m-398 14
c-3 -3 -12 -4 -19 -1 -8 3 -5 6 6 6 11 1 17 -2 13 -5z m472 -18 c-2 -2 -20 -6
-39 -10 -25 -4 -31 -3 -20 4 14 9 69 15 59 6z m-439 -20 c0 -22 -28 -39 -55
-32 -34 9 -31 24 8 35 45 13 47 13 47 -3z m425 -6 c-19 -8 -19 -9 -1 -9 11 -1
17 -4 13 -7 -3 -3 -15 -3 -28 1 -17 6 -19 9 -8 16 8 5 21 8 29 8 10 0 8 -3 -5
-9z m-1053 -40 c50 -33 74 -57 65 -66 -3 -3 -25 10 -49 28 -24 18 -55 41 -68
50 -18 12 -20 17 -9 17 8 1 36 -13 61 -29z m285 14 c-3 -3 -12 -4 -19 -1 -8 3
-5 6 6 6 11 1 17 -2 13 -5z m753 -4 c18 -12 2 -12 -25 0 -13 6 -15 9 -5 9 8 0
22 -4 30 -9z m-396 -34 c-10 -8 -21 -12 -24 -9 -3 2 4 11 14 19 11 7 22 12 25
9 2 -3 -4 -12 -15 -19z m-90 -16 c-5 -5 -34 -14 -63 -20 -69 -13 -88 -13 -75
0 8 8 56 18 139 29 5 1 5 -3 -1 -9z m65 -9 c13 -8 13 -12 0 -28 -12 -16 -12
-17 1 -6 8 6 42 14 75 17 l60 6 -45 -14 c-25 -8 -40 -15 -35 -15 6 -1 3 -6 -5
-11 -11 -7 -1 -9 35 -7 48 2 50 1 47 -23 -6 -64 -5 -64 -57 -75 -44 -9 -48
-12 -30 -22 11 -5 26 -8 34 -5 8 2 11 0 8 -5 -4 -6 -40 -11 -82 -11 -44 -1
-74 2 -70 7 3 5 -6 18 -20 29 -13 11 -21 22 -18 26 3 3 -2 6 -13 7 -18 0 -18
1 1 9 17 7 16 9 -10 10 -16 1 -24 4 -17 7 9 4 8 10 -7 22 -25 22 -17 33 41 55
26 10 50 22 53 27 8 11 36 11 54 0z m371 -57 c0 -7 -140 -174 -146 -174 -8 0
4 17 69 103 51 67 77 91 77 71z m265 -33 c3 -5 1 -12 -5 -16 -5 -3 -10 1 -10
9 0 18 6 21 15 7z m-1135 -54 c0 -2 -10 -12 -22 -23 l-23 -19 19 23 c18 21 26
27 26 19z m1339 -65 c-5 -32 -13 -69 -19 -83 -9 -21 -10 -18 -5 16 3 22 8 61
12 87 3 26 9 46 13 43 4 -2 3 -30 -1 -63z m-1279 17 c0 -10 -6 -19 -14 -19 -8
0 -22 -3 -30 -6 -12 -5 -15 -2 -10 10 3 9 10 14 14 11 4 -3 10 5 13 16 7 25
27 16 27 -12z m1344 -180 c-15 -79 -27 -152 -27 -161 -1 -10 -5 -18 -10 -18
-10 0 -9 3 18 140 9 47 19 103 21 125 7 49 13 69 19 63 3 -2 -7 -69 -21 -149z
m-1326 125 c-9 -10 -21 -13 -29 -8 -9 5 -8 9 7 15 31 12 39 10 22 -7z m17 -73
c-63 -90 -80 -106 -39 -33 26 45 86 121 92 117 1 -1 -22 -39 -53 -84z m1262
67 c-3 -8 -6 -5 -6 6 -1 11 2 17 5 13 3 -3 4 -12 1 -19z m150 -30 c-3 -7 -5
-2 -5 12 0 14 2 19 5 13 2 -7 2 -19 0 -25z m-1277 -28 c-19 -17 -39 -30 -45
-30 -5 0 6 14 25 30 19 16 40 29 45 29 6 0 -6 -13 -25 -29z m1110 -57 c-9 -15
-10 -12 -6 16 3 18 7 41 8 50 0 9 3 1 5 -16 2 -18 -1 -41 -7 -50z m35 10 c-8
-63 -25 -126 -31 -120 -3 2 0 24 5 48 5 24 13 61 16 82 3 20 8 37 12 37 3 0 2
-21 -2 -47z m-1136 -30 c-25 -27 -57 -67 -72 -90 -35 -55 -44 -56 -15 -1 23
41 110 138 125 138 4 0 -13 -21 -38 -47z m1066 -15 c-4 -35 -11 -70 -16 -78
-9 -14 -5 47 7 113 10 51 16 27 9 -35z m191 4 c-11 -10 -14 3 -8 33 l7 30 3
-28 c2 -16 1 -31 -2 -35z m-1361 17 c-4 -5 -13 -9 -21 -9 -12 0 -12 2 -2 14
14 15 32 11 23 -5z m1330 -16 c-11 -74 -28 -148 -36 -157 -4 -5 -6 0 -4 10 2
10 9 46 15 79 6 33 14 70 16 83 7 37 15 24 9 -15z m204 -19 c8 -16 18 -31 23
-32 12 -5 -11 -32 -28 -32 -11 0 -44 58 -44 77 0 13 23 -13 35 -40 11 -24 13
-26 9 -7 -3 14 -13 36 -21 49 -12 18 -12 22 -1 19 7 -2 19 -18 27 -34z m126
27 l-20 -8 20 -5 c26 -6 -63 -21 -96 -16 -20 3 -17 6 21 20 47 17 116 25 75 9z
m139 -17 c-13 -18 -20 -22 -28 -14 -8 8 -6 15 8 26 30 22 38 17 20 -12z
m-1435 -11 c-40 -47 -42 -49 -33 -33 23 40 40 60 48 60 5 0 -1 -12 -15 -27z
m261 7 c0 -5 -5 -10 -11 -10 -5 0 -7 5 -4 10 3 6 8 10 11 10 2 0 4 -4 4 -10z
m354 -4 c-21 -15 -30 -14 -19 3 3 6 14 11 23 11 13 0 13 -2 -4 -14z m16 -28
c0 -16 -3 -19 -11 -11 -6 6 -8 16 -5 22 11 17 16 13 16 -11z m357 -10 c-3 -7
-5 -2 -5 12 0 14 2 19 5 13 2 -7 2 -19 0 -25z m28 -20 c-4 -24 -11 -47 -15
-51 -4 -5 -4 11 1 35 4 24 8 46 9 51 0 4 3 7 6 7 3 0 3 -19 -1 -42z m258 35
c-7 -2 -19 -2 -25 0 -7 3 -2 5 12 5 14 0 19 -2 13 -5z m30 -23 c-4 -15 -14
-20 -38 -20 -19 0 -40 -3 -49 -6 -9 -3 -16 -1 -16 5 0 6 8 11 18 11 10 0 22 4
28 9 8 8 28 15 56 20 3 0 4 -8 1 -19z m-462 -71 c-6 -16 -10 -18 -10 -7 -1 22
12 55 16 42 2 -6 -1 -22 -6 -35z m329 31 c0 -5 -4 -10 -10 -10 -5 0 -10 5 -10
10 0 6 5 10 10 10 6 0 10 -4 10 -10z m118 -2 c-5 -15 -47 -26 -98 -26 -29 1
-26 2 18 11 28 5 52 14 52 18 0 5 7 9 16 9 9 0 14 -6 12 -12z m-511 -30 c-3
-7 -5 -2 -5 12 0 14 2 19 5 13 2 -7 2 -19 0 -25z m24 -15 c-12 -20 -14 -14 -5
12 4 9 9 14 11 11 3 -2 0 -13 -6 -23z m563 -16 c32 -86 20 -124 -69 -214 -36
-36 -66 -73 -66 -82 -2 -26 -28 111 -28 149 -1 26 2 31 9 20 5 -8 10 -28 10
-43 0 -17 4 -26 10 -22 6 4 9 14 8 23 -2 11 3 17 14 16 10 -1 15 2 12 7 -2 5
2 22 11 40 9 17 14 33 11 37 -3 3 -6 0 -6 -6 0 -7 -9 -12 -20 -12 -24 0 -26
13 -4 31 9 7 29 32 45 56 17 24 34 43 38 43 5 0 16 -19 25 -43z m-406 -27
c-12 -33 -24 -57 -27 -55 -6 7 32 115 41 115 4 0 -2 -27 -14 -60z m286 36
c-19 -30 -104 -101 -104 -88 0 5 20 26 45 47 25 20 43 40 40 45 -3 5 1 11 7
13 26 10 28 7 12 -17z m-643 -22 c30 -23 31 -25 9 -20 -24 7 -24 6 -6 -8 11
-9 17 -19 13 -22 -4 -4 -12 -2 -19 3 -16 13 -58 23 -58 15 0 -4 19 -15 42 -24
23 -10 38 -21 35 -25 -8 -7 -87 26 -87 37 0 16 22 70 29 70 4 0 23 -12 42 -26z
m153 -62 c-9 -31 -25 -66 -35 -77 -10 -11 -22 -31 -28 -45 -6 -15 -10 -19 -10
-9 -1 9 8 28 19 42 22 28 59 126 61 161 1 18 2 18 6 3 3 -10 -3 -43 -13 -75z
m268 -62 c-2 -50 -8 -90 -12 -90 -8 0 -11 185 -3 220 11 48 21 -34 15 -130z
m183 140 c-3 -5 -14 -10 -23 -10 -15 0 -15 2 -2 10 20 13 33 13 25 0z m-378
-22 c-3 -8 -6 -5 -6 6 -1 11 2 17 5 13 3 -3 4 -12 1 -19z m29 -20 c-4 -22 -11
-48 -17 -57 -8 -13 -9 -13 -5 4 2 11 7 37 11 58 3 20 9 37 12 37 3 0 3 -19 -1
-42z m-1222 11 c-3 -5 -10 -7 -15 -3 -5 3 -7 10 -3 15 3 5 10 7 15 3 5 -3 7
-10 3 -15z m205 2 c17 -17 18 -25 9 -63 -5 -23 -7 -62 -3 -85 4 -28 2 -43 -4
-43 -6 0 -11 6 -11 14 0 15 -21 26 -51 26 -13 0 -19 -7 -19 -22 0 -16 -3 -19
-11 -11 -9 9 -8 22 5 53 9 22 16 55 16 73 0 76 28 99 69 58z m948 -13 c-3 -8
-6 -5 -6 6 -1 11 2 17 5 13 3 -3 4 -12 1 -19z m128 -30 c-7 -41 -33 -104 -40
-96 -4 4 38 137 43 138 2 0 1 -19 -3 -42z m-1321 -3 c-9 -14 -18 -25 -21 -25
-5 0 5 18 20 38 17 22 18 13 1 -13z m1395 -57 c-3 -125 -13 -155 -19 -58 -5
78 1 130 15 130 3 0 5 -33 4 -72z m-213 26 c-4 -14 -9 -24 -12 -21 -3 2 -2 17
2 31 3 15 9 25 11 22 3 -3 2 -17 -1 -32z m-201 -12 c-3 -8 0 -20 7 -25 9 -6 8
-7 -5 -3 -10 3 -25 6 -33 6 -8 0 -14 7 -14 16 0 8 5 12 10 9 6 -3 10 1 10 9 0
10 6 13 16 9 9 -3 13 -12 9 -21z m222 -4 c-3 -8 -6 -5 -6 6 -1 11 2 17 5 13 3
-3 4 -12 1 -19z m29 -34 c-4 -14 -9 -24 -12 -21 -3 2 -2 17 2 31 3 15 9 25 11
22 3 -3 2 -17 -1 -32z m126 -31 c-2 -38 -8 -72 -13 -77 -4 -5 -6 12 -4 38 6
62 -11 50 -20 -14 -4 -28 -11 -50 -17 -50 -5 0 -7 4 -3 9 3 5 1 12 -4 15 -5 3
-12 -5 -15 -19 -4 -14 -11 -25 -16 -25 -13 0 0 32 39 98 17 29 31 56 31 60 0
6 20 32 25 32 1 0 -1 -30 -3 -67z m-440 -55 c23 -10 39 -20 36 -23 -2 -3 -23
3 -46 13 l-42 17 2 55 2 55 3 -50 c4 -48 6 -51 45 -67z m238 42 c-16 -66 -24
-59 -9 9 6 29 13 50 16 47 3 -3 0 -28 -7 -56z m-195 40 c3 -5 -1 -10 -9 -10
-8 0 -18 5 -21 10 -3 6 1 10 9 10 8 0 18 -4 21 -10z m218 -83 c-9 -37 -18 -65
-21 -63 -4 5 17 116 25 129 12 21 11 -4 -4 -66z m-214 47 c18 -9 30 -18 28
-21 -3 -2 -22 5 -44 16 -45 24 -31 28 16 5z m808 -16 c-3 -8 -6 -5 -6 6 -1 11
2 17 5 13 3 -3 4 -12 1 -19z m-168 -120 c-5 -10 -11 -18 -12 -18 -1 0 -3 35
-3 78 l-1 77 12 -60 c9 -39 10 -66 4 -77z m-495 68 c-3 -21 -9 -35 -11 -32 -3
3 -2 21 1 42 4 20 10 34 12 31 3 -3 2 -21 -2 -41z m338 22 c-7 -7 -12 -8 -12
-2 0 14 12 26 19 19 2 -3 -1 -11 -7 -17z m127 -45 c1 -12 -3 -25 -9 -28 -6 -4
-10 12 -9 42 0 36 3 43 9 28 5 -11 9 -30 9 -42z m-722 12 c0 -8 -4 -15 -9 -15
-4 0 -8 7 -8 15 0 8 4 15 8 15 5 0 9 -7 9 -15z m59 0 c19 -19 10 -35 -19 -34
-21 0 -21 1 -2 9 17 7 17 9 3 9 -10 1 -18 8 -18 16 0 19 17 19 36 0z m221 -17
c-3 -7 -5 -2 -5 12 0 14 2 19 5 13 2 -7 2 -19 0 -25z m253 0 c-1 -7 -7 -24
-16 -38 l-15 -25 7 25 c4 14 7 31 7 38 0 6 4 12 9 12 4 0 8 -6 8 -12z m152
-43 c-6 -32 -12 -32 -12 0 0 14 4 25 9 25 4 0 6 -11 3 -25z m-637 -3 c-3 -3
-11 0 -18 7 -9 10 -8 11 6 5 10 -3 15 -9 12 -12z m396 -29 c-10 -17 -10 -16
-11 3 0 23 13 41 18 25 2 -6 -1 -18 -7 -28z m274 16 c-6 -33 -15 -36 -15 -6 0
15 4 27 9 27 6 0 8 -10 6 -21z m-458 -21 c-3 -8 -6 -5 -6 6 -1 11 2 17 5 13 3
-3 4 -12 1 -19z"/>
<path d="M727 2649 c3 -24 7 -46 9 -48 9 -10 3 65 -5 78 -6 10 -8 -1 -4 -30z"/>
<path d="M751 2544 c0 -11 3 -14 6 -6 3 7 2 16 -1 19 -3 4 -6 -2 -5 -13z"/>
<path d="M731 2034 c0 -27 4 -58 9 -69 4 -12 6 7 3 45 -7 79 -13 92 -12 24z"/>
<path d="M2666 2875 c-4 -12 3 -15 31 -15 30 0 34 2 23 15 -7 8 -20 15 -30 15
-10 0 -20 -7 -24 -15z"/>
<path d="M1578 2643 c7 -3 16 -2 19 1 4 3 -2 6 -13 5 -11 0 -14 -3 -6 -6z"/>
<path d="M605 2463 c-34 -8 -38 -20 -5 -15 16 2 30 8 30 13 0 5 -1 8 -2 8 -2
-1 -12 -3 -23 -6z"/>
<path d="M605 1731 c-3 -5 -1 -12 4 -15 5 -3 11 1 15 9 6 16 -9 21 -19 6z"/>
<path d="M186 1461 c-4 -5 3 -7 14 -4 23 6 26 13 6 13 -8 0 -17 -4 -20 -9z"/>
<path d="M2196 675 c-9 -26 -7 -32 5 -12 6 10 9 21 6 23 -2 3 -7 -2 -11 -11z"/>
<path d="M2221 644 c0 -11 3 -14 6 -6 3 7 2 16 -1 19 -3 4 -6 -2 -5 -13z"/>
<path d="M2230 589 c0 -5 5 -7 10 -4 6 3 10 8 10 11 0 2 -4 4 -10 4 -5 0 -10
-5 -10 -11z"/>
<path d="M1045 3188 c11 -6 35 -24 53 -41 24 -23 32 -27 32 -14 0 15 -75 67
-96 67 -5 0 0 -6 11 -12z"/>
<path d="M1090 3196 c0 -2 9 -6 20 -9 11 -3 18 -1 14 4 -5 9 -34 13 -34 5z"/>
<path d="M1200 3185 c-6 -8 -28 -40 -47 -72 l-35 -58 59 64 c32 35 60 68 61
73 6 14 -25 9 -38 -7z"/>
<path d="M1435 3169 c-25 -31 -70 -109 -63 -112 2 -1 37 31 78 71 73 71 74 72
43 72 -23 0 -38 -9 -58 -31z"/>
<path d="M1563 3194 c-6 -3 -29 -26 -49 -51 l-38 -47 30 18 c17 10 49 34 70
52 31 27 35 33 19 33 -11 0 -25 -3 -32 -5z"/>
<path d="M1659 3183 c-13 -16 -12 -17 4 -4 16 13 21 21 13 21 -2 0 -10 -8 -17
-17z"/>
<path d="M1864 3168 l-16 -33 31 29 c35 34 36 36 16 36 -8 0 -22 -15 -31 -32z"/>
<path d="M1917 3168 c-28 -37 -50 -96 -26 -67 8 9 38 35 67 58 l54 41 -36 0
c-28 0 -40 -7 -59 -32z"/>
<path d="M2090 3158 l-21 -43 26 32 c14 18 34 37 43 43 15 8 14 9 -5 10 -17 0
-28 -11 -43 -42z"/>
<path d="M2189 3167 c-36 -46 -85 -114 -72 -102 25 23 113 135 106 134 -4 0
-20 -15 -34 -32z"/>
<path d="M2568 3173 c-29 -31 -101 -153 -90 -153 4 0 34 33 67 72 33 39 68 80
78 90 16 17 16 18 -6 18 -13 0 -35 -12 -49 -27z"/>
<path d="M2875 3181 c-13 -8 -33 -33 -45 -55 l-22 -41 24 20 c46 40 92 68 132
81 l41 12 -53 -1 c-29 -1 -64 -8 -77 -16z"/>
<path d="M3118 3193 c6 -2 18 -2 25 0 6 3 1 5 -13 5 -14 0 -19 -2 -12 -5z"/>
<path d="M2491 3134 c-53 -57 -62 -81 -18 -48 27 21 82 93 75 99 -2 3 -28 -21
-57 -51z"/>
<path d="M3157 3133 c-20 -21 -46 -51 -59 -67 l-24 -28 -35 32 c-47 44 -99 84
-103 79 -2 -2 27 -33 65 -68 39 -35 71 -62 72 -59 1 2 31 34 66 70 36 37 62
70 59 74 -4 3 -22 -12 -41 -33z"/>
<path d="M1703 3153 c4 -6 26 -26 49 -45 23 -18 39 -28 35 -21 -4 6 -26 26
-49 45 -23 18 -39 28 -35 21z"/>
<path d="M95 3095 c-22 -19 -36 -35 -31 -35 5 0 26 16 47 35 50 45 36 45 -16
0z"/>
<path d="M2870 3065 c-25 -25 -40 -45 -34 -45 11 0 84 74 84 85 0 9 -4 5 -50
-40z"/>
<path d="M1509 3063 c-12 -16 -12 -17 1 -7 8 6 22 14 30 17 13 5 12 6 -1 6 -9
1 -23 -7 -30 -16z"/>
<path d="M2775 3054 c-18 -16 -22 -22 -9 -15 18 9 53 42 43 41 -2 -1 -17 -12
-34 -26z"/>
<path d="M1735 3026 c-16 -7 -39 -23 -50 -36 -11 -12 -38 -31 -59 -42 -29 -15
-35 -22 -25 -28 10 -7 7 -11 -13 -19 -30 -11 -43 -27 -28 -36 5 -3 10 -21 11
-38 0 -29 1 -28 13 13 16 60 128 175 161 165 11 -4 44 -8 72 -9 46 -3 51 -1
35 10 -9 7 -27 14 -39 14 -13 0 -23 5 -23 10 0 13 -19 12 -55 -4z"/>
<path d="M1922 2925 c0 -11 3 -29 8 -40 11 -25 11 1 0 35 -6 20 -8 21 -8 5z"/>
<path d="M1503 2850 c-13 -5 -23 -11 -23 -14 0 -7 40 6 46 15 6 10 6 10 -23
-1z"/>
<path d="M1951 2814 l-40 -46 -66 36 c-70 38 -80 42 -70 25 4 -5 37 -25 74
-42 l67 -32 42 43 c36 37 52 62 38 62 -2 0 -23 -21 -45 -46z"/>
<path d="M1665 2843 c-11 -2 -30 -6 -42 -9 -13 -2 -23 -9 -23 -15 0 -6 8 -6
21 2 12 6 36 9 55 7 26 -3 31 -1 22 9 -6 7 -11 12 -12 12 0 -1 -10 -3 -21 -6z"/>
<path d="M1738 2843 c7 -3 16 -2 19 1 4 3 -2 6 -13 5 -11 0 -14 -3 -6 -6z"/>
<path d="M1898 2843 c6 -2 18 -2 25 0 6 3 1 5 -13 5 -14 0 -19 -2 -12 -5z"/>
<path d="M1408 2823 c-22 -6 -24 -33 -2 -33 8 0 13 4 9 9 -3 6 3 14 12 20 18
11 11 12 -19 4z"/>
<path d="M1435 2800 c-3 -5 -1 -10 4 -10 6 0 11 5 11 10 0 6 -2 10 -4 10 -3 0
-8 -4 -11 -10z"/>
<path d="M1467 2803 c-4 -3 -7 -13 -7 -22 1 -13 3 -13 11 2 11 19 8 33 -4 20z"/>
<path d="M1760 2772 c13 -23 25 -40 28 -38 5 6 -26 64 -39 72 -7 4 -2 -12 11
-34z"/>
<path d="M1533 2768 c-18 -13 -33 -27 -33 -32 0 -5 11 1 24 13 14 13 29 20 35
16 6 -3 11 1 11 9 0 20 1 20 -37 -6z"/>
<path d="M1387 2735 c3 -14 12 -25 19 -25 19 0 17 14 -5 34 -18 16 -18 16 -14
-9z"/>
<path d="M1951 2743 c-9 -10 -10 -18 -3 -25 7 -7 12 -3 17 12 9 27 4 32 -14
13z"/>
<path d="M2040 2756 c0 -2 8 -10 18 -17 15 -13 16 -12 3 4 -13 16 -21 21 -21
13z"/>
<path d="M2200 2736 c0 -2 9 -6 20 -9 11 -3 18 -1 14 4 -5 9 -34 13 -34 5z"/>
<path d="M1290 2720 c-9 -6 -10 -10 -3 -10 6 0 15 5 18 10 8 12 4 12 -15 0z"/>
<path d="M1465 2710 c-3 -6 1 -7 9 -4 18 7 21 14 7 14 -6 0 -13 -4 -16 -10z"/>
<path d="M2388 2713 c-26 -7 -22 -28 12 -65 l30 -33 -2 49 c-3 50 -9 57 -40
49z"/>
<path d="M2530 2706 c0 -11 10 -16 31 -16 38 0 35 24 -4 28 -19 2 -27 -1 -27
-12z"/>
<path d="M1254 2681 c0 -15 3 -17 13 -9 7 6 10 14 7 19 -9 15 -20 10 -20 -10z"/>
<path d="M2048 2653 c17 -9 32 -20 32 -25 0 -4 6 -8 13 -8 6 0 -1 12 -16 25
-15 14 -36 25 -45 24 -10 0 -4 -7 16 -16z"/>
<path d="M1091 2634 c0 -11 3 -14 6 -6 3 7 2 16 -1 19 -3 4 -6 -2 -5 -13z"/>
<path d="M2540 2646 c0 -10 28 -13 41 -5 10 6 7 9 -13 9 -16 0 -28 -2 -28 -4z"/>
<path d="M2120 2610 c8 -5 20 -10 25 -10 6 0 3 5 -5 10 -8 5 -19 10 -25 10 -5
0 -3 -5 5 -10z"/>
<path d="M1041 2593 c0 -10 4 -27 9 -38 8 -18 9 -17 9 8 1 15 1 30 2 34 0 4
-4 9 -10 11 -6 2 -11 -5 -10 -15z"/>
<path d="M2497 2546 c-5 -12 1 -16 24 -16 20 0 29 4 27 13 -7 18 -45 20 -51 3z"/>
<path d="M2313 2517 c4 -10 7 -22 7 -27 0 -4 10 -10 21 -13 21 -6 21 -5 -2 21
-13 15 -26 29 -28 32 -2 3 -1 -3 2 -13z"/>
<path d="M391 2504 c0 -11 3 -14 6 -6 3 7 2 16 -1 19 -3 4 -6 -2 -5 -13z"/>
<path d="M2500 2502 c0 -5 6 -16 13 -27 11 -14 22 -17 45 -12 39 8 43 -9 6
-25 -22 -11 -25 -16 -18 -42 4 -17 8 -47 8 -66 0 -33 2 -35 31 -34 16 1 45 2
63 3 21 1 32 6 32 16 0 8 -4 15 -8 15 -15 0 -31 67 -19 79 7 7 2 12 -16 16
-26 7 -43 30 -28 40 5 2 14 -2 21 -10 13 -15 50 -21 50 -7 0 4 -20 19 -44 35
-31 19 -56 27 -90 27 -25 0 -46 -4 -46 -8z"/>
<path d="M2440 2486 c0 -2 8 -10 18 -17 15 -13 16 -12 3 4 -13 16 -21 21 -21
13z"/>
<path d="M2 2351 l-2 -63 28 6 c15 3 54 13 87 21 l60 14 -52 -5 c-29 -3 -66
-3 -82 1 -27 6 -30 11 -34 48 -3 32 -4 26 -5 -22z"/>
<path d="M1412 2314 c-18 -14 -30 -30 -27 -35 8 -12 53 -11 57 2 2 7 17 7 48
-1 25 -7 70 -15 100 -19 37 -6 74 -20 114 -45 79 -51 80 -41 2 13 -62 41 -215
111 -246 111 -8 0 -30 -12 -48 -26z"/>
<path d="M98 2293 c6 -2 18 -2 25 0 6 3 1 5 -13 5 -14 0 -19 -2 -12 -5z"/>
<path d="M2526 2223 c-6 -14 -5 -15 5 -6 7 7 10 15 7 18 -3 3 -9 -2 -12 -12z"/>
<path d="M1428 2205 c-35 -12 -76 -29 -93 -39 -33 -19 -21 -16 73 20 59 23
164 35 133 15 -7 -5 -21 -7 -30 -4 -9 2 -41 -5 -71 -16 -44 -16 -49 -20 -27
-21 16 0 37 5 48 10 15 9 19 7 19 -5 0 -8 12 -20 26 -25 14 -6 41 -22 60 -37
64 -48 -7 -59 -113 -17 -64 26 -68 26 -97 10 -17 -9 -42 -26 -56 -37 -14 -11
3 -5 37 13 l61 33 27 -25 c15 -14 34 -38 42 -53 8 -16 17 -26 21 -23 3 4 0 12
-6 18 -19 19 -14 37 8 31 11 -3 20 -9 20 -14 0 -5 7 -9 16 -9 8 0 13 4 10 9
-4 5 2 7 12 4 25 -6 78 17 125 55 l38 30 -48 38 c-27 21 -54 43 -61 48 -24 17
-109 13 -174 -9z m167 -55 c3 -5 1 -10 -4 -10 -6 0 -11 5 -11 10 0 6 2 10 4
10 3 0 8 -4 11 -10z"/>
<path d="M1961 2214 c-41 -18 -37 -28 6 -12 17 7 38 8 49 3 10 -5 35 -10 54
-13 19 -2 52 -13 75 -23 31 -15 35 -16 20 -3 -32 26 -118 64 -145 64 -14 -1
-40 -7 -59 -16z"/>
<path d="M2560 2190 c-47 -19 -69 -34 -78 -54 -8 -15 -20 -30 -28 -33 -26 -10
-16 -35 14 -31 25 3 27 6 24 41 -3 35 11 52 21 25 2 -7 3 -5 2 4 -3 21 19 30
34 15 6 -6 11 -21 11 -34 0 -20 -4 -22 -25 -17 -21 5 -25 3 -25 -15 0 -17 6
-21 30 -21 30 0 30 0 30 57 0 31 3 54 6 51 3 -3 5 -29 6 -57 0 -48 1 -51 26
-51 l27 0 -23 -18 c-19 -15 -22 -24 -17 -48 12 -54 14 -56 32 -45 16 8 17 23
14 123 -1 62 -6 118 -9 123 -5 7 -30 2 -72 -15z"/>
<path d="M3187 2203 c-11 -10 -8 -63 3 -63 6 0 10 16 10 35 0 36 -2 40 -13 28z"/>
<path d="M473 2175 c0 -12 3 -12 16 -3 9 7 18 14 20 15 2 2 -5 3 -16 3 -11 0
-20 -7 -20 -15z"/>
<path d="M1968 2183 c6 -2 18 -2 25 0 6 3 1 5 -13 5 -14 0 -19 -2 -12 -5z"/>
<path d="M1312 2128 c-35 -16 -62 -31 -60 -33 5 -6 109 32 121 44 23 23 0 19
-61 -11z"/>
<path d="M188 2143 c6 -2 18 -2 25 0 6 3 1 5 -13 5 -14 0 -19 -2 -12 -5z"/>
<path d="M270 2135 c19 -7 51 -14 70 -14 33 0 32 1 -15 14 -65 18 -102 18 -55
0z"/>
<path d="M1275 2140 c-3 -6 1 -7 9 -4 18 7 21 14 7 14 -6 0 -13 -4 -16 -10z"/>
<path d="M1906 2125 c-64 -39 -65 -48 -1 -110 31 -30 61 -55 68 -55 8 0 7 4
-3 10 -8 5 -11 12 -7 16 3 4 13 1 21 -5 8 -7 34 -14 58 -17 l43 -4 -65 32
c-36 17 -81 37 -100 43 -33 11 -31 11 38 13 40 1 80 6 90 11 18 10 112 -6 112
-19 0 -4 12 -7 26 -7 l25 0 -33 28 c-42 37 -79 57 -137 75 -64 19 -90 17 -135
-11z m200 -30 c38 -25 21 -31 -19 -6 -19 11 -41 21 -50 21 -9 0 -18 4 -21 9
-9 14 61 -5 90 -24z m-149 -27 c-3 -8 -6 -5 -6 6 -1 11 2 17 5 13 3 -3 4 -12
1 -19z"/>
<path d="M228 2123 c6 -2 18 -2 25 0 6 3 1 5 -13 5 -14 0 -19 -2 -12 -5z"/>
<path d="M138 2094 c-27 -13 -48 -27 -48 -29 0 -3 21 5 48 18 26 14 54 27 62
30 13 5 13 5 0 6 -8 0 -36 -11 -62 -25z"/>
<path d="M0 2070 c0 -17 5 -19 25 -14 15 4 25 2 25 -5 0 -6 -11 -11 -25 -11
-22 0 -24 -3 -20 -37 2 -21 6 -47 9 -58 2 -12 7 -46 11 -78 6 -49 5 -57 -9
-57 -11 0 -16 -9 -16 -26 0 -20 4 -24 19 -19 12 3 21 0 25 -10 4 -11 -1 -15
-19 -15 -14 0 -25 -4 -25 -10 0 -15 33 -12 56 5 10 8 29 15 42 15 26 0 26 -5
8 95 -8 44 -20 113 -26 153 -9 52 -17 75 -30 82 -30 16 -50 12 -50 -10z m68
-107 c18 -83 22 -127 13 -158 -9 -29 -9 -29 -11 -5 -2 30 -3 37 -24 128 -19
86 -19 82 -2 82 9 0 18 -18 24 -47z"/>
<path d="M1747 2053 c-37 -14 -66 -27 -64 -29 5 -5 118 36 132 48 13 11 9 10
-68 -19z"/>
<path d="M150 2040 c-24 -8 -23 -8 8 -9 20 -1 31 3 27 9 -3 6 -7 10 -8 9 -1
-1 -13 -5 -27 -9z"/>
<path d="M248 2033 c6 -2 18 -2 25 0 6 3 1 5 -13 5 -14 0 -19 -2 -12 -5z"/>
<path d="M453 2033 c9 -2 25 -2 35 0 9 3 1 5 -18 5 -19 0 -27 -2 -17 -5z"/>
<path d="M1787 2032 c6 -4 13 -21 16 -37 4 -27 4 -27 6 8 1 29 -3 37 -16 37
-12 0 -14 -3 -6 -8z"/>
<path d="M2454 2026 c-3 -8 -4 -27 -2 -43 3 -23 5 -20 9 15 5 43 2 53 -7 28z"/>
<path d="M2513 2033 c15 -2 37 -2 50 0 12 2 0 4 -28 4 -27 0 -38 -2 -22 -4z"/>
<path d="M2714 1982 c2 -34 6 -65 9 -69 10 -9 7 76 -3 107 -6 17 -7 5 -6 -38z"/>
<path d="M1634 2007 c-12 -7 -39 -32 -60 -56 -22 -24 -69 -63 -105 -87 -88
-56 -119 -97 -118 -155 1 -24 3 -37 6 -28 5 19 63 53 114 67 30 8 45 6 80 -10
24 -11 64 -22 88 -24 24 -2 56 -11 70 -21 l26 -17 -25 -6 c-14 -4 -32 -3 -41
1 -8 4 -29 8 -45 7 -16 0 -49 5 -74 10 -65 16 -61 7 7 -13 61 -19 143 -64 143
-79 0 -5 7 -3 15 4 9 7 27 10 45 7 16 -4 32 -2 35 3 8 13 85 13 105 0 12 -8 5
-20 -40 -64 -30 -31 -59 -56 -65 -56 -5 0 -4 5 3 12 7 7 12 17 12 23 0 12 -39
14 -56 3 -6 -4 -26 -3 -44 2 -19 5 -35 8 -38 6 -8 -9 40 -27 62 -24 13 1 31
-3 40 -11 15 -13 15 -15 -1 -28 -17 -13 -16 -13 3 -4 11 5 30 9 40 9 18 -2
146 81 159 102 9 15 -37 39 -113 59 -39 10 -86 28 -103 39 l-32 20 84 -3 c46
-1 88 0 92 2 5 3 1 14 -9 24 -20 23 -68 24 -104 4 -38 -22 -72 -18 -116 14
-21 16 -63 39 -93 52 -45 19 -59 21 -92 12 -45 -12 -45 -11 28 67 23 25 54 62
70 82 15 20 42 43 58 52 17 8 26 15 20 15 -5 0 -20 -5 -31 -12z m-97 -223 c-3
-3 -12 -4 -19 -1 -8 3 -5 6 6 6 11 1 17 -2 13 -5z"/>
<path d="M2150 1997 c0 -3 12 -12 26 -22 15 -9 23 -12 20 -6 -7 11 -46 35 -46
28z"/>
<path d="M1812 1945 c0 -11 3 -29 8 -40 11 -25 11 1 0 35 -6 20 -8 21 -8 5z"/>
<path d="M1893 1878 c13 -10 15 -20 8 -48 -6 -26 -4 -39 5 -48 11 -10 13 -7 8
17 -4 17 -4 37 0 46 5 14 8 14 31 -1 14 -9 25 -14 25 -11 0 8 -72 57 -84 57
-6 0 -2 -6 7 -12z"/>
<path d="M1000 1859 c0 -5 5 -7 10 -4 6 3 10 8 10 11 0 2 -4 4 -10 4 -5 0 -10
-5 -10 -11z"/>
<path d="M7 1843 c-4 -3 -7 -11 -7 -17 0 -6 5 -5 12 2 6 6 9 14 7 17 -3 3 -9
2 -12 -2z"/>
<path d="M3187 1831 c-4 -17 -3 -21 5 -13 5 5 8 16 6 23 -3 8 -7 3 -11 -10z"/>
<path d="M1760 1815 c0 -5 5 -17 10 -25 5 -8 10 -10 10 -5 0 6 -5 17 -10 25
-5 8 -10 11 -10 5z"/>
<path d="M1690 1806 c0 -2 8 -10 18 -17 15 -13 16 -12 3 4 -13 16 -21 21 -21
13z"/>
<path d="M1957 1778 c11 -13 25 -32 31 -44 10 -19 9 -21 -14 -16 -13 2 -31 14
-40 26 -15 20 -15 20 -8 -9 6 -27 24 -59 68 -120 13 -18 13 -26 -3 -73 l-18
-53 23 22 c31 29 54 80 54 121 -1 57 -33 130 -65 149 -42 24 -52 23 -28 -3z"/>
<path d="M1276 1781 c-4 -6 -5 -30 -1 -52 5 -26 3 -45 -5 -55 -11 -12 -10 -13
2 -9 22 9 34 -54 14 -73 -11 -11 -11 -20 -3 -43 6 -16 15 -29 19 -29 13 0 14
32 3 160 -8 90 -17 121 -29 101z"/>
<path d="M1825 1775 c-22 -7 -31 -13 -20 -14 11 0 34 6 50 14 38 17 22 17 -30
0z"/>
<path d="M1737 1769 c7 -7 15 -10 18 -7 3 3 -2 9 -12 12 -14 6 -15 5 -6 -5z"/>
<path d="M1436 1677 c-25 -18 -14 -37 63 -111 50 -47 64 -56 76 -46 9 7 26 9
45 5 49 -11 34 11 -17 25 -46 13 -100 43 -116 65 -16 23 -20 57 -6 66 11 7 9
9 -7 9 -11 0 -28 -6 -38 -13z"/>
<path d="M1366 1625 c8 -50 14 -58 14 -19 0 16 -5 36 -11 44 -7 11 -8 4 -3
-25z"/>
<path d="M1381 1550 c0 -8 4 -22 9 -30 12 -18 12 -2 0 25 -6 13 -9 15 -9 5z"/>
<path d="M2228 1553 c7 -3 16 -2 19 1 4 3 -2 6 -13 5 -11 0 -14 -3 -6 -6z"/>
<path d="M2713 1553 c9 -2 23 -2 30 0 6 3 -1 5 -18 5 -16 0 -22 -2 -12 -5z"/>
<path d="M2973 1553 c9 -2 25 -2 35 0 9 3 1 5 -18 5 -19 0 -27 -2 -17 -5z"/>
<path d="M3092 1493 c-2 -26 -8 -35 -34 -47 -18 -8 -49 -17 -69 -20 -20 -4
-46 -17 -59 -31 -24 -26 -136 -75 -173 -75 -19 -1 -20 -2 -5 -11 13 -7 26 -6
45 4 16 8 39 18 53 22 20 6 17 1 -17 -30 -71 -60 -48 -61 30 0 39 31 84 59
100 62 15 3 27 11 27 18 0 8 18 15 48 17 26 3 56 8 67 12 19 7 19 7 2 -7 -9
-8 -34 -17 -55 -21 -27 -4 -41 -13 -54 -36 l-17 -30 32 16 c18 9 39 22 47 29
8 7 33 18 54 25 37 12 41 11 57 -9 9 -11 19 -21 22 -21 3 0 6 27 6 60 l0 59
-32 -5 c-18 -3 -40 -7 -49 -9 -12 -2 -18 6 -21 29 l-4 31 -1 -32z"/>
<path d="M1562 1468 c20 -19 64 -48 97 -64 39 -19 59 -34 56 -42 -3 -8 -1 -12
3 -10 16 6 121 93 121 100 1 11 -48 -10 -77 -32 -13 -11 -30 -20 -36 -20 -12
0 -118 52 -171 84 -27 17 -27 16 7 -16z"/>
<path d="M3028 1465 c-3 -3 -43 -10 -89 -15 -46 -6 -123 -15 -170 -20 -107
-12 -497 -87 -524 -101 -16 -8 -15 -8 10 -4 39 7 121 22 193 36 31 7 73 13 92
14 19 2 49 8 65 15 17 6 44 9 60 7 17 -2 50 2 75 9 49 14 116 21 125 13 8 -9
-121 -31 -187 -33 -50 -2 -61 -6 -92 -36 -19 -19 -33 -37 -30 -41 7 -11 -19
-26 -56 -32 -30 -5 -32 -4 -16 6 85 54 104 101 31 77 -20 -7 -34 -14 -31 -17
2 -3 -11 -19 -31 -36 -19 -17 -39 -42 -44 -55 -10 -25 -10 -25 -32 -5 -12 10
-31 25 -41 33 -31 23 -9 -9 26 -39 27 -23 27 -26 13 -47 -14 -22 -12 -22 27 5
57 38 120 71 135 71 7 0 20 11 29 25 14 21 92 75 109 75 3 0 0 -10 -6 -22
l-12 -23 24 21 c24 21 59 38 59 28 0 -3 -12 -16 -27 -30 -20 -18 -23 -24 -10
-20 10 3 23 6 28 6 6 0 8 4 5 8 -3 5 16 17 42 28 26 10 63 27 82 36 19 10 44
18 55 18 12 0 25 3 29 8 4 4 37 14 74 23 37 9 55 17 41 18 -14 0 -28 -1 -31
-4z"/>
<path d="M800 1381 c-25 -10 -63 -28 -85 -41 -100 -58 -141 -80 -154 -80 -8 0
-19 -6 -25 -14 -6 -7 -29 -16 -50 -19 -42 -7 -38 8 4 16 20 3 18 5 -10 7 -33
2 -33 3 -10 10 14 4 42 8 63 9 20 1 37 5 37 11 0 5 -6 7 -13 4 -13 -5 -139
-11 -263 -13 l-72 -1 -36 -91 c-20 -50 -35 -93 -33 -96 3 -2 25 33 49 79 41
77 78 112 78 73 0 -13 4 -13 28 4 15 11 43 23 62 26 32 6 37 3 55 -27 11 -18
18 -39 17 -46 -4 -18 47 -169 62 -185 28 -28 86 -176 86 -220 0 -31 -34 -58
-70 -56 -17 1 -19 3 -7 6 9 2 17 8 17 13 0 5 7 7 15 4 12 -5 15 2 14 37 -1 24
-4 34 -6 22 -6 -30 -23 -30 -23 0 0 34 -11 67 -21 62 -4 -3 -12 9 -17 27 -7
24 -8 6 -5 -62 3 -68 1 -91 -6 -80 -6 8 -11 30 -11 48 0 44 -20 122 -31 122
-5 0 -4 -11 1 -25 8 -22 7 -25 -13 -26 -21 -1 -21 -1 3 -9 25 -8 25 -8 2 -9
-15 -1 -21 -5 -16 -13 4 -6 3 -8 -4 -4 -5 3 -13 23 -17 44 -3 20 -11 44 -16
52 -8 11 -9 9 -4 -10 3 -14 9 -43 12 -65 5 -40 4 -41 -31 -52 l-35 -11 -17 44
c-21 56 -27 52 -10 -6 13 -46 29 -156 21 -148 -3 2 -11 22 -19 44 -12 32 -15
34 -15 15 -1 -28 -16 -19 -24 14 -3 11 -3 -2 0 -30 2 -27 7 -58 10 -69 3 -12
1 -16 -6 -12 -6 4 -11 14 -11 22 0 8 -4 13 -9 10 -5 -3 -7 -16 -3 -28 3 -14 2
-19 -6 -14 -7 4 -12 14 -12 23 0 9 -3 14 -6 11 -6 -6 31 -206 40 -215 3 -3 13
0 22 8 15 12 14 14 -2 19 -13 5 -3 11 35 24 28 9 56 14 62 10 6 -3 31 2 55 11
25 9 48 14 51 11 11 -11 -11 -25 -52 -34 -22 -5 -39 -14 -38 -20 2 -6 -9 -14
-25 -17 -15 -4 -35 -10 -44 -16 -10 -5 -27 -9 -37 -9 -11 0 -22 -4 -25 -8 -2
-4 12 -6 32 -4 50 6 36 -6 -19 -16 -44 -9 -45 -8 -41 17 2 14 -1 37 -7 51 -9
24 -10 24 -10 3 -1 -13 -5 -23 -9 -23 -10 0 -4 -37 26 -185 29 -141 36 -194
23 -175 -6 8 -11 24 -11 35 0 12 -5 26 -11 32 -6 6 -13 26 -15 45 -8 75 -28
175 -41 203 l-14 30 4 -27 c4 -28 -7 -39 -15 -15 -3 6 -11 44 -19 82 l-14 70
-6 -54 c-12 -91 -29 -87 -29 7 0 45 4 82 8 82 9 0 -12 118 -23 128 -4 4 -5 -2
-2 -13 13 -44 19 -115 10 -115 -5 0 -9 -23 -8 -52 0 -35 -4 -53 -14 -56 -10
-3 -13 2 -9 22 3 14 1 26 -3 26 -5 0 -9 -11 -9 -25 0 -14 -5 -25 -11 -25 -8 0
-10 18 -7 55 3 30 1 52 -4 49 -13 -8 -10 -544 3 -544 7 0 9 16 4 50 -5 34 -3
50 4 50 7 0 11 -22 11 -55 0 -42 -3 -55 -15 -55 -8 0 -15 -9 -15 -20 0 -19 7
-20 181 -20 l181 0 -7 27 c-3 15 -11 31 -16 34 -6 3 -18 38 -28 77 l-19 70 45
7 c49 7 70 0 30 -10 -15 -4 -32 -13 -38 -21 -10 -13 -8 -13 15 -4 33 12 36 12
36 1 0 -5 -12 -12 -27 -17 -19 -5 -23 -8 -12 -11 18 -4 39 -71 39 -123 l0 -31
68 3 67 3 8 65 c6 54 24 380 21 380 -1 0 -46 -11 -100 -24 -54 -14 -100 -23
-102 -21 -9 9 11 25 31 24 12 0 57 8 100 17 67 15 77 19 72 35 -6 18 -1 21 33
19 4 -1 6 -10 4 -21 -2 -11 0 -19 5 -18 20 3 21 -4 8 -48 -18 -57 -17 -53 -6
-53 5 0 12 14 16 31 9 42 16 31 8 -14 -4 -25 -11 -37 -22 -37 -12 0 -13 -2 -3
-8 10 -7 9 -24 -4 -86 -9 -43 -14 -80 -11 -82 3 -3 8 10 12 28 3 18 10 44 14
58 5 14 14 44 21 68 26 83 20 33 -9 -84 -16 -65 -33 -137 -36 -159 -4 -22 -9
-48 -12 -57 -2 -10 0 -18 4 -18 5 0 15 27 21 60 7 32 16 62 21 65 5 2 5 -12 0
-33 -20 -81 -21 -92 -12 -92 6 0 16 20 23 45 16 56 24 53 11 -4 -7 -31 -6 -41
4 -41 7 0 16 16 19 35 4 19 11 35 16 35 6 0 6 -10 0 -26 -6 -14 -10 -29 -10
-34 0 -5 99 -9 221 -10 l221 -1 -4 46 c-2 34 0 44 10 40 16 -6 -11 47 -48 95
-38 48 -82 134 -103 200 -15 50 -16 43 0 -40 3 -16 -7 -5 -28 30 -18 30 -35
57 -39 60 -12 11 -30 104 -30 159 0 32 -6 92 -14 132 -16 79 -32 204 -29 229
0 8 9 55 18 104 9 51 15 123 13 170 -2 44 0 97 4 116 7 32 7 33 -3 7 -6 -15
-15 -25 -20 -21 -8 5 -19 -14 -33 -60 -4 -10 -9 -16 -13 -13 -7 8 14 61 44
110 13 20 22 37 21 36 -2 0 -23 -9 -48 -18z m-164 -136 c1 -8 -2 -13 -7 -9 -5
3 -9 12 -9 21 0 19 13 9 16 -12z m-62 -57 c-8 -69 -14 -74 -14 -11 0 44 5 63
17 63 2 0 0 -24 -3 -52z m-28 5 c-3 -21 -6 -72 -6 -113 0 -41 -4 -68 -8 -60
-11 23 -2 210 10 210 7 0 8 -14 4 -37z m85 -14 c-6 -24 -9 -28 -10 -12 -1 24
9 56 16 50 2 -3 0 -20 -6 -38z m156 19 c-3 -8 -6 -5 -6 6 -1 11 2 17 5 13 3
-3 4 -12 1 -19z m-57 -24 c-9 -23 -8 -25 12 -19 l23 7 -22 -17 c-13 -9 -23
-27 -23 -41 0 -13 -4 -24 -8 -24 -10 0 0 89 11 108 14 21 17 13 7 -14z m-261
-29 l0 -20 -9 20 c-5 11 -9 27 -9 35 -1 13 0 13 9 0 5 -8 9 -24 9 -35z m299
-42 c-10 -2 -18 -9 -18 -15 0 -6 -3 -9 -6 -5 -10 10 6 27 24 26 15 -1 15 -2 0
-6z m27 -20 c-11 -3 -23 -10 -27 -17 -5 -7 -8 -7 -8 0 0 16 11 24 34 23 20 -1
20 -1 1 -6z m-138 -45 c-3 -7 -5 -2 -5 12 0 14 2 19 5 13 2 -7 2 -19 0 -25z
m150 26 c-3 -3 -12 -4 -19 -1 -8 3 -5 6 6 6 11 1 17 -2 13 -5z m11 -46 c-5
-25 -58 -37 -58 -14 0 15 15 24 43 25 9 1 16 -5 15 -11z m-133 -47 c0 -27 -3
-53 -7 -57 -5 -4 -8 15 -8 43 0 40 5 63 14 63 1 0 1 -22 1 -49z m-64 -8 c-8
-15 -10 -15 -11 -2 0 17 10 32 18 25 2 -3 -1 -13 -7 -23z m158 0 c1 9 6 17 11
17 6 0 8 -21 4 -57 -8 -68 -14 -81 -14 -30 0 21 -4 37 -10 37 -5 0 -10 12 -9
28 0 24 1 25 9 7 7 -17 9 -17 9 -2z m-336 -140 c-7 -2 -19 -2 -25 0 -7 3 -2 5
12 5 14 0 19 -2 13 -5z m17 -34 c0 -5 -4 -9 -10 -9 -5 0 -10 7 -10 16 0 8 5
12 10 9 6 -3 10 -10 10 -16z m0 -44 c0 -15 -6 -25 -14 -25 -8 0 -22 -3 -32 -7
-12 -4 -15 -2 -12 8 3 8 13 14 24 14 12 0 18 6 16 18 -2 9 2 17 8 17 5 0 10
-11 10 -25z m127 -70 c-13 -56 -16 -60 -48 -68 -19 -4 -49 -13 -68 -19 -19 -6
-55 -12 -80 -13 -25 -2 -66 -8 -90 -13 -51 -12 -61 -9 -61 18 0 14 10 21 35
26 20 3 39 4 42 0 4 -3 -3 -6 -15 -6 -11 0 -24 -5 -27 -10 -4 -7 7 -9 30 -6
38 5 60 16 34 16 -26 1 54 30 91 34 21 2 46 12 58 24 12 12 29 22 38 22 9 0
12 5 8 11 -5 8 1 10 20 7 22 -4 26 -2 26 17 0 23 12 43 17 28 2 -5 -3 -36 -10
-68z m-47 41 c0 -2 -7 -7 -16 -10 -8 -3 -12 -2 -9 4 6 10 25 14 25 6z m-139
-32 c-88 -27 -87 -27 -74 -14 7 7 29 16 50 20 60 12 72 9 24 -6z m35 -13 c-4
-5 0 -11 6 -14 7 -2 -5 -8 -27 -11 -22 -4 -50 -9 -62 -12 -13 -2 -23 0 -23 6
0 5 8 10 19 10 10 0 34 7 52 15 41 17 42 17 35 6z m170 -59 c-11 -10 -15 4 -8
28 l7 25 3 -23 c2 -13 1 -26 -2 -30z m-306 18 c-8 -5 -28 -9 -45 -9 -30 2 -30
2 5 9 51 11 57 11 40 0z m270 -39 c0 -10 -69 -25 -77 -17 -3 3 10 9 28 15 45
12 49 13 49 2z m30 -1 c0 -5 -5 -10 -11 -10 -5 0 -7 5 -4 10 3 6 8 10 11 10 2
0 4 -4 4 -10z m167 -37 c-3 -10 -5 -4 -5 12 0 17 2 24 5 18 2 -7 2 -21 0 -30z
m-287 18 c0 -11 -36 -21 -70 -20 -20 1 -17 4 15 14 50 17 55 17 55 6z m144
-30 c-4 -17 -9 -30 -11 -27 -3 2 -2 19 2 36 4 17 9 30 11 27 2 -2 1 -18 -2
-36z m-60 15 c-3 -8 -13 -14 -22 -14 -9 0 -25 -3 -34 -7 -11 -4 -18 -3 -18 3
0 10 42 30 67 31 7 1 10 -5 7 -13z m-209 -11 c-43 -19 -105 -29 -105 -18 0 10
76 30 115 31 14 0 11 -3 -10 -13z m220 -25 c-28 -12 -47 -12 -40 0 3 6 18 10
33 9 24 0 25 -1 7 -9z m-558 -102 c-2 -13 -4 -3 -4 22 0 25 2 35 4 23 2 -13 2
-33 0 -45z m483 52 c-19 -5 -61 -13 -93 -19 -31 -5 -62 -13 -67 -16 -6 -3 -10
-1 -10 5 0 6 14 13 30 17 17 3 32 9 35 12 2 4 35 8 72 8 55 1 61 -1 33 -7z
m287 -152 c-2 -29 -3 -8 -3 47 0 55 1 79 3 53 2 -26 2 -71 0 -100z m70 60 c-2
-13 -4 -3 -4 22 0 25 2 35 4 23 2 -13 2 -33 0 -45z m-357 32 c-8 -5 -22 -10
-30 -10 -13 0 -13 1 0 10 8 5 22 10 30 10 13 0 13 -1 0 -10z m160 -7 c0 -5 -5
-15 -10 -23 -8 -12 -10 -11 -10 8 0 12 5 22 10 22 6 0 10 -3 10 -7z m-365 -13
c-3 -5 -21 -10 -38 -9 -27 0 -29 2 -12 9 28 12 57 12 50 0z m152 3 c-10 -10
-97 -21 -97 -12 0 8 32 15 79 18 13 0 21 -2 18 -6z m48 -13 c-6 -10 -86 -35
-143 -45 -22 -4 -31 -2 -27 5 3 5 16 10 28 10 12 1 47 9 77 20 63 22 74 24 65
10z m-478 -47 c-3 -10 -5 -2 -5 17 0 19 2 27 5 18 2 -10 2 -26 0 -35z m153 37
c0 -5 -8 -10 -17 -10 -15 0 -16 2 -3 10 19 12 20 12 20 0z m647 -67 c-3 -10
-5 -2 -5 17 0 19 2 27 5 18 2 -10 2 -26 0 -35z m-362 17 c-16 -4 -41 -8 -55
-9 -20 0 -22 1 -10 9 8 5 33 9 55 9 39 -1 39 -2 10 -9z m-427 -85 c-2 -40 1
-51 15 -53 25 -5 21 -24 -5 -20 -21 3 -23 9 -25 78 -2 53 0 71 7 60 6 -8 9
-37 8 -65z m449 69 c-10 -10 -77 -22 -77 -14 0 8 26 16 64 19 11 0 17 -2 13
-5z m400 -76 c-2 -18 -4 -6 -4 27 0 33 2 48 4 33 2 -15 2 -42 0 -60z m-502 52
c-3 -5 -14 -10 -23 -9 -14 0 -13 2 3 9 27 11 27 11 20 0z m115 0 c0 -5 -19
-14 -42 -21 -24 -6 -52 -15 -63 -19 -26 -11 -85 -21 -85 -15 0 9 62 36 73 32
6 -2 32 5 57 14 53 21 60 22 60 9z m150 -37 c-11 -17 -11 -17 -6 0 3 10 6 24
7 30 0 9 2 9 5 0 3 -7 0 -20 -6 -30z m-356 -56 c21 -83 18 -139 -3 -72 -16 48
-30 145 -21 145 3 0 14 -33 24 -73z m-227 11 c-3 -8 -6 -5 -6 6 -1 11 2 17 5
13 3 -3 4 -12 1 -19z m569 -24 c-8 -21 -15 -31 -15 -22 -1 21 18 72 24 66 3
-3 -1 -22 -9 -44z m-181 15 c-11 -4 -27 -8 -35 -8 -10 1 -11 2 -2 6 6 2 10 8
7 12 -2 5 8 6 23 3 24 -5 24 -6 7 -13z m-315 -8 c0 -6 -4 -13 -10 -16 -5 -3
-10 1 -10 9 0 9 5 16 10 16 6 0 10 -4 10 -9z m330 -6 c0 -10 -79 -44 -84 -36
-3 5 11 16 32 24 40 17 52 20 52 12z m-230 -72 c0 -23 -4 -45 -10 -48 -6 -4
-10 17 -10 57 0 44 3 59 10 48 5 -8 10 -34 10 -57z m420 17 c-17 -32 -22 -19
-7 19 7 20 13 27 15 18 2 -9 -2 -26 -8 -37z m207 -2 c-2 -13 -4 -5 -4 17 -1
22 1 32 4 23 2 -10 2 -28 0 -40z m-389 21 c-4 -12 -79 -41 -87 -33 -8 7 21 24
41 24 9 0 20 5 23 10 8 14 28 13 23 -1z m-411 -31 c-3 -7 -5 -2 -5 12 0 14 2
19 5 13 2 -7 2 -19 0 -25z m70 -10 c-3 -7 -5 -2 -5 12 0 14 2 19 5 13 2 -7 2
-19 0 -25z m30 -5 c-3 -10 -5 -4 -5 12 0 17 2 24 5 18 2 -7 2 -21 0 -30z m270
-9 c-16 -9 -31 -13 -34 -10 -3 3 5 10 18 15 37 15 47 12 16 -5z m323 -8 c0 -3
-4 -8 -10 -11 -5 -3 -10 -1 -10 4 0 6 5 11 10 11 6 0 10 -2 10 -4z m-653 -36
c-1 -12 -5 -16 -10 -11 -5 5 -6 14 -3 20 11 16 15 13 13 -9z m788 -10 c3 -5 1
-10 -4 -10 -6 0 -11 5 -11 10 0 6 2 10 4 10 3 0 8 -4 11 -10z"/>
<path d="M1340 1385 c6 -8 19 -17 28 -20 10 -3 35 -32 56 -65 22 -33 41 -60
43 -60 2 0 -10 27 -26 59 -19 38 -43 66 -64 80 -40 25 -54 27 -37 6z"/>
<path d="M1622 1338 c47 -51 47 -51 72 -34 15 9 26 20 26 24 0 8 -83 47 -120
55 -23 6 -20 1 22 -45z"/>
<path d="M3150 1356 c0 -3 9 -10 20 -16 11 -6 20 -8 20 -6 0 3 -9 10 -20 16
-11 6 -20 8 -20 6z"/>
<path d="M2386 1325 c-14 -14 -14 -18 2 -34 10 -11 21 -14 27 -9 6 6 5 12 -4
17 -9 6 -10 11 -2 15 6 4 15 5 20 2 5 -3 14 1 21 9 11 13 8 15 -18 15 -17 0
-37 -7 -46 -15z"/>
<path d="M2608 1293 c-27 -14 -46 -28 -43 -31 12 -12 -22 -45 -84 -81 -80 -47
-99 -66 -75 -75 9 -3 20 -4 25 0 5 3 9 1 9 -4 0 -18 -13 -20 -46 -6 -42 18
-45 10 -3 -11 16 -9 62 -46 102 -84 83 -78 424 -321 450 -321 7 0 27 -9 45
-20 17 -11 32 -15 32 -9 0 5 -21 19 -46 29 -25 11 -55 26 -65 34 -20 13 -20
15 11 50 18 20 28 36 24 36 -5 0 2 7 14 16 13 9 22 26 22 42 1 32 14 52 53 77
16 10 37 35 47 55 10 20 42 64 69 97 41 49 48 62 35 67 -29 11 -49 6 -59 -16
-6 -12 -17 -24 -25 -26 -13 -5 -13 -3 0 13 14 17 13 18 -5 11 -11 -5 -30 -11
-42 -13 -13 -3 -20 -10 -17 -15 3 -5 -3 -5 -15 1 -12 6 -30 16 -41 21 -26 13
-50 13 -50 -1 0 -6 -9 -9 -20 -6 -17 4 -18 2 -8 -16 6 -12 8 -19 4 -16 -3 3
-27 -14 -52 -39 -42 -40 -50 -44 -83 -38 -20 3 -52 6 -71 6 -26 0 -31 3 -20
10 25 16 -27 12 -60 -5 -28 -14 -110 -17 -110 -3 0 4 28 23 63 42 63 35 213
77 277 79 19 0 40 4 46 9 6 4 22 8 35 7 23 -1 211 34 251 47 44 14 6 14 -63 0
-41 -8 -123 -22 -182 -31 -166 -25 -345 -72 -406 -106 -53 -30 -54 -31 -73
-11 -18 18 -19 22 -5 48 25 46 113 115 169 131 58 17 60 26 3 13 -42 -10 -51
-8 -40 9 11 18 87 54 94 44 11 -17 71 -54 71 -45 0 10 -74 62 -87 62 -5 0 -29
-12 -55 -27z m-158 -158 c0 -9 -9 -15 -22 -15 -21 0 -21 0 -2 15 24 18 24 18
24 0z m460 -69 c0 -3 -4 -8 -10 -11 -5 -3 -10 -1 -10 4 0 6 5 11 10 11 6 0 10
-2 10 -4z m-120 -70 c0 -3 -4 -8 -10 -11 -5 -3 -10 -1 -10 4 0 6 5 11 10 11 6
0 10 -2 10 -4z m60 -29 c0 -2 -11 -14 -25 -27 -14 -13 -25 -21 -25 -17 0 3 10
15 22 27 21 19 28 24 28 17z"/>
<path d="M325 1229 c-11 -17 1 -21 15 -4 8 9 8 15 2 15 -6 0 -14 -5 -17 -11z"/>
<path d="M896 1214 c-4 -14 -5 -29 -2 -31 3 -3 8 7 12 21 3 15 4 29 1 32 -2 3
-8 -7 -11 -22z"/>
<path d="M2474 1226 c-29 -22 -13 -26 21 -5 17 11 23 19 14 19 -8 0 -24 -6
-35 -14z"/>
<path d="M1500 1226 c0 -2 8 -10 18 -17 15 -13 16 -12 3 4 -13 16 -21 21 -21
13z"/>
<path d="M357 1178 c-23 -22 -31 -33 -17 -22 32 25 41 32 65 49 11 8 15 14 7
15 -7 0 -32 -19 -55 -42z"/>
<path d="M1730 1200 c-8 -5 -10 -10 -5 -10 6 0 17 5 25 10 8 5 11 10 5 10 -5
0 -17 -5 -25 -10z"/>
<path d="M3140 1180 l-25 -8 25 0 c14 0 34 3 45 8 l20 9 -20 -1 c-11 0 -31 -4
-45 -8z"/>
<path d="M3078 1163 c7 -3 16 -2 19 1 4 3 -2 6 -13 5 -11 0 -14 -3 -6 -6z"/>
<path d="M229 1129 c-23 -19 -23 -20 -2 -10 12 6 25 16 28 21 10 16 -1 12 -26
-11z"/>
<path d="M381 1134 c0 -11 3 -14 6 -6 3 7 2 16 -1 19 -3 4 -6 -2 -5 -13z"/>
<path d="M392 1100 c0 -8 6 -31 13 -50 7 -19 13 -28 13 -20 0 8 -6 31 -13 50
-7 19 -13 28 -13 20z"/>
<path d="M2688 1093 c7 -3 16 -2 19 1 4 3 -2 6 -13 5 -11 0 -14 -3 -6 -6z"/>
<path d="M3153 1051 c-52 -60 -57 -79 -8 -25 32 36 60 74 53 74 -2 0 -22 -22
-45 -49z"/>
<path d="M301 1080 c0 -8 4 -24 9 -35 5 -13 9 -14 9 -5 0 8 -4 24 -9 35 -5 13
-9 14 -9 5z"/>
<path d="M151 1024 c0 -11 3 -14 6 -6 3 7 2 16 -1 19 -3 4 -6 -2 -5 -13z"/>
<path d="M2380 1011 c0 -6 4 -13 10 -16 6 -3 7 1 4 9 -7 18 -14 21 -14 7z"/>
<path d="M421 994 c0 -11 3 -14 6 -6 3 7 2 16 -1 19 -3 4 -6 -2 -5 -13z"/>
<path d="M161 984 c0 -11 3 -14 6 -6 3 7 2 16 -1 19 -3 4 -6 -2 -5 -13z"/>
<path d="M231 984 c0 -11 3 -14 6 -6 3 7 2 16 -1 19 -3 4 -6 -2 -5 -13z"/>
<path d="M67 960 c9 -53 25 -84 17 -35 -3 22 -10 47 -15 55 -5 10 -6 2 -2 -20z"/>
<path d="M2401 975 c0 -5 6 -21 14 -35 8 -14 14 -20 14 -15 0 6 -6 21 -14 35
-8 14 -14 21 -14 15z"/>
<path d="M2473 905 c0 -44 2 -61 4 -37 2 23 2 59 0 80 -2 20 -4 1 -4 -43z"/>
<path d="M6 930 c4 -25 10 -52 15 -60 13 -22 10 -1 -6 55 l-15 50 6 -45z"/>
<path d="M431 954 c0 -11 3 -14 6 -6 3 7 2 16 -1 19 -3 4 -6 -2 -5 -13z"/>
<path d="M865 940 c3 -5 8 -10 11 -10 2 0 4 5 4 10 0 6 -5 10 -11 10 -5 0 -7
-4 -4 -10z"/>
<path d="M3191 924 c0 -11 3 -14 6 -6 3 7 2 16 -1 19 -3 4 -6 -2 -5 -13z"/>
<path d="M861 910 c1 -8 5 -26 9 -40 l8 -25 1 25 c0 14 -4 32 -9 40 -9 13 -10
13 -9 0z"/>
<path d="M2430 905 c0 -5 5 -17 10 -25 5 -8 10 -10 10 -5 0 6 -5 17 -10 25 -5
8 -10 11 -10 5z"/>
<path d="M2531 864 c0 -11 3 -14 6 -6 3 7 2 16 -1 19 -3 4 -6 -2 -5 -13z"/>
<path d="M320 855 c0 -5 5 -17 10 -25 5 -8 10 -10 10 -5 0 6 -5 17 -10 25 -5
8 -10 11 -10 5z"/>
<path d="M3018 853 c7 -3 16 -2 19 1 4 3 -2 6 -13 5 -11 0 -14 -3 -6 -6z"/>
<path d="M3042 839 c-13 -5 -28 -7 -33 -3 -5 3 -9 -2 -9 -10 0 -19 -1 -19 39
-5 17 6 31 15 31 20 0 5 -1 9 -2 8 -2 0 -14 -4 -26 -10z"/>
<path d="M2 815 c0 -16 2 -22 5 -12 2 9 2 23 0 30 -3 6 -5 -1 -5 -18z"/>
<path d="M877 819 c4 -13 8 -18 11 -10 2 7 -1 18 -6 23 -8 8 -9 4 -5 -13z"/>
<path d="M2620 828 c0 -7 5 -20 10 -28 8 -12 10 -11 10 7 0 12 -4 25 -10 28
-5 3 -10 0 -10 -7z"/>
<path d="M141 800 c-2 -10 28 -142 33 -147 8 -8 -5 66 -20 112 -6 22 -12 38
-13 35z"/>
<path d="M2691 774 c0 -11 3 -14 6 -6 3 7 2 16 -1 19 -3 4 -6 -2 -5 -13z"/>
<path d="M12 760 c0 -14 2 -19 5 -12 2 6 2 18 0 25 -3 6 -5 1 -5 -13z"/>
<path d="M892 735 c0 -16 2 -22 5 -12 2 9 2 23 0 30 -3 6 -5 -1 -5 -18z"/>
<path d="M1 699 c-1 -15 6 -42 14 -60 18 -43 18 -29 0 36 -9 35 -14 42 -14 24z"/>
<path d="M900 663 c0 -18 5 -33 10 -33 13 0 13 30 0 50 -7 11 -10 7 -10 -17z"/>
<path d="M2398 638 c4 -28 6 -30 12 -13 8 21 3 45 -9 45 -4 0 -5 -15 -3 -32z"/>
<path d="M120 625 c0 -8 4 -15 10 -15 5 0 7 7 4 15 -4 8 -8 15 -10 15 -2 0 -4
-7 -4 -15z"/>
<path d="M2893 628 c-18 -6 -33 -15 -33 -20 0 -5 5 -6 11 -2 7 4 30 13 53 20
23 7 32 13 21 12 -11 0 -35 -5 -52 -10z"/>
<path d="M164 569 c3 -17 6 -35 6 -40 0 -5 9 -9 20 -9 11 0 20 5 20 10 0 6 -6
10 -14 10 -20 0 -32 40 -15 51 11 7 10 9 -5 9 -15 0 -17 -5 -12 -31z"/>
<path d="M2348 593 c6 -2 18 -2 25 0 6 3 1 5 -13 5 -14 0 -19 -2 -12 -5z"/>
<path d="M916 523 c12 -64 25 -94 18 -43 -3 25 -6 53 -7 63 -1 9 -5 17 -10 17
-4 0 -5 -17 -1 -37z"/>
<path d="M1971 471 c24 -21 46 -37 48 -35 5 5 -71 73 -83 74 -5 0 11 -18 35
-39z"/>
<path d="M3185 500 c3 -5 8 -10 11 -10 2 0 4 5 4 10 0 6 -5 10 -11 10 -5 0 -7
-4 -4 -10z"/>
<path d="M990 490 c-9 -6 -10 -10 -3 -10 6 0 15 5 18 10 8 12 4 12 -15 0z"/>
<path d="M2160 417 c-27 -40 -174 -150 -370 -279 -151 -99 -198 -138 -166
-138 16 0 99 53 309 196 146 100 189 142 251 242 16 26 -3 10 -24 -21z"/>
<path d="M1882 411 c-10 -6 -2 -17 28 -44 43 -39 55 -44 66 -26 4 7 -10 26
-32 45 -43 37 -44 37 -62 25z"/>
<path d="M1052 248 c18 -37 34 -65 36 -64 4 5 -35 90 -52 111 -9 11 -2 -10 16
-47z"/>
<path d="M551 84 c0 -11 3 -14 6 -6 3 7 2 16 -1 19 -3 4 -6 -2 -5 -13z"/>
<path d="M2975 20 c-10 -11 -14 -20 -9 -20 5 0 15 9 22 20 16 26 10 26 -13 0z"/>
</g>
</svg>
